<svg width="32" height="32" viewBox="0 0 32 32" fill="none" xmlns="http://www.w3.org/2000/svg">
<path d="M7 0C6.5 0 6 0.4 6 1V2H3C1.4 2 0 3.3 0 5V9V29C0 30.7 1.3 32 3 32H29C30.7 32 32 30.7 32 29V9V5C32 3.3 30.7 2 29 2H26V1C26 0.4 25.6 0 25 0C24.4 0 24 0.4 24 1V2H8V1C8 0.4 7.6 0 7 0ZM30 29C30 29.6 29.6 30 29 30H3C2.4 30 2 29.6 2 29V10H30V29ZM24 4V5C24 5.6 24.4 6 25 6C25.6 6 26 5.6 26 5V4H29C29.6 4 30 4.4 30 5V8H2V5C2 4.4 2.4 4 3 4H6V5C6 5.6 6.4 6 7 6C7.6 6 8 5.6 8 5V4H24Z" fill="#00ADA6"/>
<path d="M6.09985 18.4999H10.0999C10.6999 18.4999 11.0999 18.0999 11.0999 17.4999V13.4999C11.0999 12.8999 10.6999 12.4999 10.0999 12.4999H6.09985C5.49985 12.4999 5.09985 12.8999 5.09985 13.4999V17.4999C5.09985 18.0999 5.49985 18.4999 6.09985 18.4999ZM7.09985 14.4999H9.09985V16.4999H7.09985V14.4999Z" fill="#00ADA6"/>
<path d="M14.1001 18.4999H18.1001C18.7001 18.4999 19.1001 18.0999 19.1001 17.4999V13.4999C19.1001 12.8999 18.7001 12.4999 18.1001 12.4999H14.1001C13.5001 12.4999 13.1001 12.8999 13.1001 13.4999V17.4999C13.1001 18.0999 13.5001 18.4999 14.1001 18.4999ZM15.1001 14.4999H17.1001V16.4999H15.1001V14.4999Z" fill="#00ADA6"/>
<path d="M22.1001 18.4999H26.1001C26.7001 18.4999 27.1001 18.0999 27.1001 17.4999V13.4999C27.1001 12.8999 26.7001 12.4999 26.1001 12.4999H22.1001C21.5001 12.4999 21.1001 12.8999 21.1001 13.4999V17.4999C21.1001 18.0999 21.5001 18.4999 22.1001 18.4999ZM23.1001 14.4999H25.1001V16.4999H23.1001V14.4999Z" fill="#00ADA6"/>
<path d="M6.09985 27.5001H10.0999C10.6999 27.5001 11.0999 27.1001 11.0999 26.5001V22.5001C11.0999 21.9001 10.6999 21.5001 10.0999 21.5001H6.09985C5.49985 21.5001 5.09985 21.9001 5.09985 22.5001V26.5001C5.09985 27.1001 5.49985 27.5001 6.09985 27.5001ZM7.09985 23.5001H9.09985V25.5001H7.09985V23.5001Z" fill="#00ADA6"/>
<path d="M14.1001 27.5001H18.1001C18.7001 27.5001 19.1001 27.1001 19.1001 26.5001V22.5001C19.1001 21.9001 18.7001 21.5001 18.1001 21.5001H14.1001C13.5001 21.5001 13.1001 21.9001 13.1001 22.5001V26.5001C13.1001 27.1001 13.5001 27.5001 14.1001 27.5001ZM15.1001 23.5001H17.1001V25.5001H15.1001V23.5001Z" fill="#00ADA6"/>
<path d="M22.1001 27.5001H26.1001C26.7001 27.5001 27.1001 27.1001 27.1001 26.5001V22.5001C27.1001 21.9001 26.7001 21.5001 26.1001 21.5001H22.1001C21.5001 21.5001 21.1001 21.9001 21.1001 22.5001V26.5001C21.1001 27.1001 21.5001 27.5001 22.1001 27.5001ZM23.1001 23.5001H25.1001V25.5001H23.1001V23.5001Z" fill="#00ADA6"/>
</svg>
