<svg width="8" height="18" viewBox="0 0 8 18" fill="none" xmlns="http://www.w3.org/2000/svg">
<path d="M7.64471 1.14793C7.75733 1.28476 7.84669 1.44729 7.90765 1.62621C7.96862 1.80513 8 1.99694 8 2.19065C8 2.38435 7.96862 2.57616 7.90765 2.75508C7.84669 2.93401 7.75733 3.09654 7.64471 3.23337L2.93089 8.97204L7.64471 14.7107C7.87187 14.9873 7.99949 15.3623 7.99949 15.7534C7.99949 16.1445 7.87187 16.5196 7.64471 16.7962C7.41755 17.0727 7.10945 17.2281 6.7882 17.2281C6.46695 17.2281 6.15886 17.0727 5.9317 16.7962L0.35529 10.0074C0.242664 9.87053 0.153311 9.708 0.0923452 9.52908C0.0313797 9.35016 0 9.15835 0 8.96464C0 8.77094 0.0313797 8.57913 0.0923452 8.40021C0.153311 8.22128 0.242664 8.05875 0.35529 7.92192L5.9317 1.13313C6.39336 0.5711 7.1709 0.571101 7.64471 1.14793Z" fill="#A9A9A9" fill-opacity="0.73"/>
</svg>
