<?xml version="1.0" standalone="yes"?>
<svg xmlns="http://www.w3.org/2000/svg" width="256" height="228">
<path style="fill:#f9f9f9; stroke:none;" d="M0 0L0 103L1 103L6 83L7 83L5 89L8 89C8.60161 84.3964 29.0338 84.0338 32 87L33 87L34 84L40 84L36 87L35 87L36 91L32 93L34 92L34 93C26.4805 107.983 33.8014 128.523 51 132.471C56.0893 133.639 67.5254 130.212 70.9259 134.333C76.0973 140.599 78.7014 150.699 82.2577 158C88.4856 170.786 96.3761 182.949 102 196L97 198L97 200C104.842 204.175 109.543 208.74 113 217C83.9044 199.128 54.0105 181.14 28 158.869C14.6474 147.436 1.80913 133.559 1 115L0 115L0 228L128 228C110.539 194.815 91.6058 162.498 76.7191 128C68.8967 109.872 60.4241 90.8205 58.2894 71C54.7116 37.7812 86.9047 3.5542 119 1L83 0L0 0z"/>
<path style="fill:#f8e5b2; stroke:none;" d="M64 43L65 43L71 35L70 32L72 33L78 25L78 29L79 29L78 23L80 24L79 21C82.2052 22.0684 85.8968 21.4128 85 25L90 24L88 20L84 21L87 14C90.709 14.1414 92.1284 13.1811 94 10L96 14L90 20L93 18L97 19L95 15L104.09 16.8133L115.961 14.2346L136 17L136 16L130 16L130 15L148 14L148 15L145 16L145 17L161 15L159 18C167.467 16.8109 172.107 17.8568 179 24L176 27L177 27C180.347 24.2439 182.339 27.6723 181 31L181 32L185 30L186 35L189 37C188.594 23.3596 167.098 10.1035 156 5.60416C122.918 -7.8075 74.8775 5.24155 64 43z"/>
<path style="fill:#fcd47b; stroke:none;" d="M128.667 0.333328L129.333 0.666672L128.667 0.333328z"/>
<path style="fill:#f9f9f9; stroke:none;" d="M138 0L138 1C147.89 2.27727 157.697 5.79201 166 11.3588C231.259 55.1125 176.418 138.503 149.64 189C142.878 201.752 133.994 214.462 129 228L256 228L256 115L255 115C254.144 134.628 240.202 148.616 226 160.414C200.081 181.944 170.99 198.479 143 217C146.484 208.633 151.143 204.358 159 200L159 198L154 196C161.539 181.327 169.411 166.864 176.576 152C179.122 146.717 181.476 137.222 186.39 133.693C189.625 131.37 196.174 133.134 200 132.961C207.607 132.615 214.784 129.096 219.443 122.985C226.96 113.126 227.789 93.1533 216 86L216 85L221 89L222 89L249 83L250 83L251 88L249 87L249 88L252 88L255 102L256 102L256 0L138 0z"/>
<path style="fill:#fcd47b; stroke:none;" d="M111 3L112 4L111 3M146 3L147 4L146 3M116.667 4.33333L117.333 4.66667L116.667 4.33333M136 4L136 5L145 5L136 4M104 7L101 6L101 7L108 6L104 7M112 5L112 6L115 6L112 5M147 5L147 6L148 8L155 8L155 7L147 5M118.667 6.33333L119.333 6.66667L118.667 6.33333M135 7L135 8L139 7L135 7M121 7L123 9L121 7M132 7L133 8L132 7M130 8L130 12L125 12L125 13L137 13L137 12L132 12L130 8M97 9L98 10L97 9M124 9L124 10L127 10L124 9M156 9L156 10L162 11L160 14L166 14L166 12L156 9M94 10L87 14L84 21L88 20L90 24L85 25C84.5695 21.5207 82.1714 21.3518 79 21L80 24L78 23L78 24L79 29L78 29L78 25C74.3084 26.8056 72.38 28.8672 72 33L70 32L71 35C65.3059 36.2044 62.9102 46.9225 61.348 52C56.6106 67.3972 59.9128 83.2273 65.142 98C66.7972 102.676 67.7586 109.097 72 112L71 109L74 118L73 118L73 116L72 116L74 120L75 116L78 115L79 115L80 121L104 120L104 117L121 116C123.583 122.453 128.007 116.236 133.004 116.019C144.623 115.515 156.369 116 168 116L168 119L176 117L177 117L176 121L180 125L181 125L182 122L175 116L179 108L180 113L177 112L179 116L181 116L183 112L186 114C188.653 91.834 201.437 76.7041 195.37 53C194.047 47.8288 191.852 36.2975 186 35L185 30L181 32L181 31C183.762 28.0979 179.945 23.218 177 27L176 27L179 24C172.831 16.6856 167.353 15.9521 159 18L161 15L145 17L145 16L148 15L148 14L130 15L130 16L136 16L136 17L115.961 14.0972L105.039 16.6435L95 15L97 19L93 18L90 20L96 14L94 10M101 14L112 14L112 11C107.585 10.8475 103.577 9.83383 101 14M146 11L155 14C152.781 10.2407 150.057 10.585 146 11z"/>
<path style="fill:#f8e5b2; stroke:none;" d="M162.667 12.3333L163.333 12.6667L162.667 12.3333z"/>
<path style="fill:#fcd47b; stroke:none;" d="M168 14L170 16L168 14M171 16L172 17L171 16M84 17L85 18L84 17M173 18L174 19L173 18z"/>
<path style="fill:#f8e5b2; stroke:none;" d="M168 19L167 21L168 19M171 21L172 22L171 21z"/>
<path style="fill:#fcd47b; stroke:none;" d="M87 22L88 23L87 22z"/>
<path style="fill:#f8e5b2; stroke:none;" d="M168 22L171 24L171 23L168 22M82 23L83 24L82 23M176 29L177 30L176 29M73 31L74 32L73 31M76 31L77 32L76 31M178 31L179 32L178 31M119 32L119 33L122 34L122 35C110.9 35.9752 101.13 44.3643 98 55L99 55C106.974 40.0973 118.844 35 135 35L135 34L119 32M115.667 33.3333L116.333 33.6667L115.667 33.3333M138.667 33.3333L139.333 33.6667L138.667 33.3333M147 33L148 34L147 33M136 34L140 37L140 36L136 34z"/>
<path style="fill:#f9f9f9; stroke:none;" d="M122 35.4676C81.0015 43.2024 94.4111 104.455 135 97.6744C175.331 90.937 162.046 27.9125 122 35.4676z"/>
<path style="fill:#f8e5b2; stroke:none;" d="M141.667 37.3333L142.333 37.6667L141.667 37.3333M153 37L154 38L153 37M143.667 38.3333L144.333 38.6667L143.667 38.3333M190 38L191 39L190 38M145 39L146 40L145 39M146.667 40.3333L147.333 40.6667L146.667 40.3333M190 40L192 42L192 40L190 40M148 41L149 42L148 41M67 42L68 43L67 42M149 42L150 43L149 42M192.333 42.6667L192.667 43.3333L192.333 42.6667M150 43L151 44L150 43M63.3333 44.6667L63.6667 45.3333L63.3333 44.6667M151 44L153 46L153 44L151 44M193 44L193 47L194 47L193 44M62 46L61 52L62 52L62 46M153 46L155 49L153 46M194 47L194 50L195 50L194 47M155 49L156 50L155 49M156.333 50.6667L156.667 51.3333L156.333 50.6667M195 50L195 54L196 54L195 50M60 52L60 55L61 55L60 52M157.333 52.6667L157.667 53.3333L157.333 52.6667M196 54L196 58L197 58L196 54M158.333 55.6667L158.667 56.3333L158.333 55.6667M97 56L97 59L98 59L97 56M59 57L59 62L60 62L59 57M159 57L159 60L160 60L159 57M96 59L96 63L97 63L96 59M197 59L197 64L198 64L197 59M160 63L160 70L161 70L160 63M58 64L58 73L59 73L58 64M96 68L96 74L97 74L96 68M159 73L159 76L160 76L159 73M197 73L197 77L198 77L197 73M97 74L97 77L98 77L97 74M59 76L59 80L60 80L59 76M158.333 76.6667L158.667 77.3333L158.333 76.6667M10 77L11 78L10 77M245 77L246 78L245 77M98.3333 78.6667L98.6667 79.3333L98.3333 78.6667M8 79L9 80L8 79M157.333 79.6667L157.667 80.3333L157.333 79.6667M243.667 79.3333L244.333 79.6667L243.667 79.3333M247 79L248 80L247 79M196.333 80.6667L196.667 81.3333L196.333 80.6667M60 81L60 84L61 84L60 81M156 81L157 82L156 81M213 82L216 85L216 81L213 82M7 82L8 83L7 82M37.6667 82.3333L38.3333 82.6667L37.6667 82.3333M100 82L101 83L100 82M217 82L218 83L217 82M6 83L0.0895062 106L1 121L3 122L4 122L3 112L4 112L6 122L7 122L7 114L8 114L8 117L33 117C31.0395 107.496 31.5063 101.328 34 92L32 93L33 90L36 91L35 87L36 87L37 89L40 84L33 87L32 87C29.3766 83.4066 8.53154 84.7702 8 89L5 89L6 83M40 83L41 84L40 83M155 83L156 84L155 83M249 83C244.478 89.9745 229.055 84.1792 222 89L221 89L216 85L216 86C228.458 97.4189 221.139 107.551 223 121L220 121L220 122L223 123L224 118L250 118L250 114L251 114L253 125L254 125C253.461 121.768 252.102 120.275 255 121C253.554 112.883 260.774 91.5032 249 88L249 87L251 88L251 87L249 83M101 84L102 85L101 84M154.333 84.6667L154.667 85.3333L154.333 84.6667M195.333 84.6667L195.667 85.3333L195.333 84.6667M221 84L221 87L222 87L221 84z"/>
<path style="fill:#fcc15b; stroke:none;" d="M98 85L100 88L98 85z"/>
<path style="fill:#f8e5b2; stroke:none;" d="M102 85L103 86L102 85z"/>
<path style="fill:#fcc15b; stroke:none;" d="M157 85L158 86L157 85z"/>
<path style="fill:#f8e5b2; stroke:none;" d="M61.3333 86.6667L61.6667 87.3333L61.3333 86.6667M103 86L104 87L103 86M153 86L154 87L153 86M152 87L153 88L152 87z"/>
<path style="fill:#fcc15b; stroke:none;" d="M156 87L157 88L156 87z"/>
<path style="fill:#f9f9f9; stroke:none;" d="M32 88L33 89L32 88z"/>
<path style="fill:#f8e5b2; stroke:none;" d="M105.333 88.6667L105.667 89.3333L105.333 88.6667M151 88L152 89L151 88M194.333 88.6667L194.667 89.3333L194.333 88.6667M150 89L151 90L150 89M62 90L63 91L62 90M106 90L107 91L106 90M149 90L150 91L149 90z"/>
<path style="fill:#f9f9f9; stroke:none;" d="M222 90L223 91L222 90z"/>
<path style="fill:#f8e5b2; stroke:none;" d="M148 91L149 92L148 91M193.333 91.6667L193.667 92.3333L193.333 91.6667z"/>
<path style="fill:#f9f9f9; stroke:none;" d="M251.333 91.6667L251.667 92.3333L251.333 91.6667z"/>
<path style="fill:#fcc15b; stroke:none;" d="M105 92L106 93L105 92z"/>
<path style="fill:#f8e5b2; stroke:none;" d="M109 92L110 93L109 92M147 92L148 93L147 92M63 93L64 94L63 93M110.667 93.3333L111.333 93.6667L110.667 93.3333M145.667 93.3333L146.333 93.6667L145.667 93.3333z"/>
<path style="fill:#fcc15b; stroke:none;" d="M148 93L149 94L148 93M151 93L152 94L151 93M106 94L109 96L106 94z"/>
<path style="fill:#f8e5b2; stroke:none;" d="M112 94L113 95L112 94M144 94L145 95L144 94M192.333 94.6667L192.667 95.3333L192.333 94.6667M113.667 95.3333L114.333 95.6667L113.667 95.3333M142 95L143 96L142 95z"/>
<path style="fill:#fcc15b; stroke:none;" d="M148 95L149 96L148 95z"/>
<path style="fill:#f8e5b2; stroke:none;" d="M64.3333 96.6667L64.6667 97.3333L64.3333 96.6667M116 96L117 97L116 96M139.667 96.3333L140.333 96.6667L139.667 96.3333z"/>
<path style="fill:#fcc15b; stroke:none;" d="M176 96L176 100L177 100L176 96M182 96L182 99L184 99L184 96L182 96M188 96L189 97L188 96M190 96L191 97L190 96M74 97L75 98L74 97z"/>
<path style="fill:#f8e5b2; stroke:none;" d="M119.667 97.3333L120.333 97.6667L119.667 97.3333M136.667 97.3333L137.333 97.6667L136.667 97.3333z"/>
<path style="fill:#fcc15b; stroke:none;" d="M139 97L140 98L139 97z"/>
<path style="fill:#f8e5b2; stroke:none;" d="M65.3333 98.6667L65.6667 99.3333L65.3333 98.6667z"/>
<path style="fill:#fcc15b; stroke:none;" d="M112 98L113 99L112 98z"/>
<path style="fill:#f8e5b2; stroke:none;" d="M124 98L124 99L133 99L124 98M191.333 98.6667L191.667 99.3333L191.333 98.6667z"/>
<path style="fill:#fcc15b; stroke:none;" d="M114 99L115 100L114 99M125 99L125 100L126 102L131 102L131 101L128 101L128 100L130 100L125 99M136 99L137 100L136 99M141.667 99.3333L142.333 99.6667L141.667 99.3333M120.667 100.333L121.333 100.667L120.667 100.333M134 100L135 101L134 100M138.667 100.333L139.333 100.667L138.667 100.333M186 100L185 105L186 105L188 103L188 102L186 100z"/>
<path style="fill:#f8e5b2; stroke:none;" d="M190.333 100.667L190.667 101.333L190.333 100.667z"/>
<path style="fill:#fcc15b; stroke:none;" d="M68 101L69 102L68 101z"/>
<path style="fill:#f8e5b2; stroke:none;" d="M66.3333 102.667L66.6667 103.333L66.3333 102.667z"/>
<path style="fill:#fcc15b; stroke:none;" d="M71.3333 102.667L71.6667 103.333L71.3333 102.667M119 102L120 103L119 102M139 102L140 103L139 102M143 102L144 103L143 102M69.3333 103.667L69.6667 104.333L69.3333 103.667M112 103L113 104L112 103z"/>
<path style="fill:#f8e5b2; stroke:none;" d="M67.3333 104.667L67.6667 105.333L67.3333 104.667z"/>
<path style="fill:#fcc15b; stroke:none;" d="M136 108L144 104L136 108M187 104L188 105L187 104z"/>
<path style="fill:#f8e5b2; stroke:none;" d="M189 104L190 105L189 104z"/>
<path style="fill:#fcc15b; stroke:none;" d="M113 106L113 107L118 107L118 106L113 106M70 106L71 107L70 106M119 106L122 108L122 107L119 106M184 106L185 109L186 109L184 106z"/>
<path style="fill:#f8e5b2; stroke:none;" d="M188 106L189 107L188 106M68 107L69 108L68 107z"/>
<path style="fill:#fcc15b; stroke:none;" d="M126 107L127 108L126 107M175 116L181 123L185 115L185 114L184 112L181 116L179 116L177 112L180 113L179 108L175 116z"/>
<path style="fill:#f8e5b2; stroke:none;" d="M187.333 108.667L187.667 109.333L187.333 108.667z"/>
<path style="fill:#fcc15b; stroke:none;" d="M71 109L73 118L74 118L71 109z"/>
<path style="fill:#f8e5b2; stroke:none;" d="M69 110L70 111L69 110z"/>
<path style="fill:#fcc15b; stroke:none;" d="M76 110L76 111L79 115L80 115L76 110M112 111L112 112L122 112L112 111M184.333 110.667L184.667 111.333L184.333 110.667z"/>
<path style="fill:#bfc0c4; stroke:none;" d="M30 111L31 112L30 111z"/>
<path style="fill:#fcc15b; stroke:none;" d="M137 111L137 112L144 112L137 111M158.667 111.333L159.333 111.667L158.667 111.333z"/>
<path style="fill:#f8e5b2; stroke:none;" d="M186 111L187 112L186 111z"/>
<path style="fill:#bfc0c4; stroke:none;" d="M225 111L226 112L225 111M231 111L232 112L231 111M3 112L4 122L3 122L3 120L2 120C3.37856 136.742 16.4898 149.942 28.9105 159.845C54.6228 180.344 83.0549 202.999 113 217C110.019 208.399 105.333 203.591 97 200L97 198L102 196L80.2469 153L70 135L71 133C66.7897 132.123 63.2335 133.962 59 133.87C47.9834 133.633 37.819 126.661 33 117C27.3379 118.332 11.3504 119.168 8 114L7 114L7 122L6 122L3 112M5.33333 112.667L5.66667 113.333L5.33333 112.667z"/>
<path style="fill:#f8e5b2; stroke:none;" d="M70.3333 112.667L70.6667 113.333L70.3333 112.667z"/>
<path style="fill:#fcc15b; stroke:none;" d="M185 112L186 113L185 112z"/>
<path style="fill:#bfc0c4; stroke:none;" d="M248.333 112.667L248.667 113.333L248.333 112.667M252 112L252 115L253 115L252 112z"/>
<path style="fill:#fcd47b; stroke:none;" d="M71.3333 113.667L71.6667 114.333L71.3333 113.667z"/>
<path style="fill:#f8e5b2; stroke:none;" d="M185 114L186 115L185 114z"/>
<path style="fill:#bfc0c4; stroke:none;" d="M250 114L250 118L224 118L223 123L221 121C215.4 127.625 208.748 132.287 200 133.674C195.973 134.313 188.841 130.933 185.699 133.644C181.163 137.557 178.439 147.628 175.753 153C168.608 167.291 160.137 181.259 154 196L159 198L159 200C150.734 203.566 145.875 208.444 143 217C175.141 200.067 210.121 177.577 236 151.996C244.343 143.749 259.814 126.324 250 114z"/>
<path style="fill:#f8e5b2; stroke:none;" d="M71 115L72 116L71 115z"/>
<path style="fill:#fcc15b; stroke:none;" d="M78 115L75 116C73.6584 125.593 81.0619 135.38 84.7716 144C92.4355 161.809 102.027 178.704 110.752 196C115.577 205.563 120.861 218.89 129 226C144.455 200.748 157.928 173.73 170.638 147C172.945 142.15 184.273 122.914 176 121L177 117L176 117L168 119L168 116C156.341 116 144.66 115.784 133.004 116.005C127.97 116.1 124.21 121.122 121 116L104 117L104 120C94.9694 117.364 89.6125 118.159 80 121L78 115z"/>
<path style="fill:#fcd47b; stroke:none;" d="M183 115L183 118L184 118L185 115L183 115z"/>
<path style="fill:#bfc0c4; stroke:none;" d="M254 115L254 120L255 120L254 115M1 116L1 120L2 120L1 116z"/>
<path style="fill:#fcc15b; stroke:none;" d="M80 116L81 117L80 116z"/>
<path style="fill:#f8e5b2; stroke:none;" d="M184 116L185 117L184 116M33 118L34 119L33 118M72 118L73 119L72 118z"/>
<path style="fill:#fcd47b; stroke:none;" d="M77 118L79 121L77 118z"/>
<path style="fill:#f8e5b2; stroke:none;" d="M183.333 118.667L183.667 119.333L183.333 118.667M32.3333 119.667L32.6667 120.333L32.3333 119.667z"/>
<path style="fill:#fcd47b; stroke:none;" d="M182.333 119.667L182.667 120.333L182.333 119.667z"/>
<path style="fill:#bfc0c4; stroke:none;" d="M222.333 119.667L222.667 120.333L222.333 119.667z"/>
<path style="fill:#f8e5b2; stroke:none;" d="M250 119L249 122L250 122L250 119M34 120L35 121L34 120M73 120L74 121L73 120z"/>
<path style="fill:#bfc0c4; stroke:none;" d="M253 120L253 123L254 123L253 120z"/>
<path style="fill:#f8e5b2; stroke:none;" d="M35 121L36 122L35 121z"/>
<path style="fill:#fcd47b; stroke:none;" d="M74 121L75 122L74 121z"/>
<path style="fill:#f8e5b2; stroke:none;" d="M182 121L183 122L182 121M33 122L35 124L33 122M74 122L75 123L74 122z"/>
<path style="fill:#fcd47b; stroke:none;" d="M76.3333 122.667L76.6667 123.333L76.3333 122.667M79 122L78 126L79 126L79 122z"/>
<path style="fill:#f8e5b2; stroke:none;" d="M181.333 123.667L181.667 124.333L181.333 123.667M2 124L3 125L2 124M37 124L38 125L37 124M75.3333 124.667L75.6667 125.333L75.3333 124.667z"/>
<path style="fill:#fcd47b; stroke:none;" d="M178 124L179 125L178 124z"/>
<path style="fill:#f8e5b2; stroke:none;" d="M218 124L219 125L218 124M33.3333 125.667L33.6667 126.333L33.3333 125.667M36.3333 125.667L36.6667 126.333L36.3333 125.667M180.333 125.667L180.667 126.333L180.333 125.667M219.333 125.667L219.667 126.333L219.333 125.667M222.333 125.667L222.667 126.333L222.333 125.667M39 126L40 127L39 126z"/>
<path style="fill:#fcd47b; stroke:none;" d="M76 126L77 127L76 126z"/>
<path style="fill:#f8e5b2; stroke:none;" d="M216 126L217 127L216 126M76 127L77 128L76 127z"/>
<path style="fill:#fcd47b; stroke:none;" d="M79 127L80 128L79 127M179 127L178 130L179 130L179 127M77 128L78 131L79 131L77 128M85 128L88 131L85 128z"/>
<path style="fill:#f8e5b2; stroke:none;" d="M179 128L180 129L179 128M213 128L214 129L213 128M250 128L251 129L250 128M4.33333 129.667L4.66667 130.333L4.33333 129.667M40 129L41 130L40 129M77 129L78 130L77 129z"/>
<path style="fill:#fcd47b; stroke:none;" d="M81 129L82 130L81 129z"/>
<path style="fill:#f8e5b2; stroke:none;" d="M6 130L7 131L6 130M42 130L43 131L42 130M178 130L176 136L177 136L178 130M210 130L211 131L210 130M249 130L250 131L249 130M251 130L252 131L251 130M78 131L79 135L80 135L78 131z"/>
<path style="fill:#fcd47b; stroke:none;" d="M177 131L178 132L177 131z"/>
<path style="fill:#f8e5b2; stroke:none;" d="M208 131L209 132L208 131M212 131L213 132L212 131M5 132L6 133L5 132M50 132L51 133L50 132M66 132L67 133L66 132M70 132L71 133L70 132z"/>
<path style="fill:#fcd47b; stroke:none;" d="M79 132L80 133L79 132z"/>
<path style="fill:#f8e5b2; stroke:none;" d="M189 132L190 133L189 132M204 132L205 133L204 132M250 132L251 133L250 132M55 133L55 134L64 134L55 133z"/>
<path style="fill:#fcd47b; stroke:none;" d="M176 133L177 134L176 133z"/>
<path style="fill:#f8e5b2; stroke:none;" d="M192 133L192 134L202 134L192 133M6 134L7 135L6 134M70.6667 134.333L71.3333 134.667L70.6667 134.333z"/>
<path style="fill:#fcd47b; stroke:none;" d="M80 134L80 136L82 136L80 134z"/>
<path style="fill:#f8e5b2; stroke:none;" d="M189 134L190 135L189 134M191 134L192 135L191 134M249 134L250 135L249 134z"/>
<path style="fill:#fcd47b; stroke:none;" d="M175 135L173 141L174 141L175 135z"/>
<path style="fill:#f8e5b2; stroke:none;" d="M7 136L8 137L7 136M80 136L81 137L80 136z"/>
<path style="fill:#fcd47b; stroke:none;" d="M82 136L83 137L82 136M172 136L173 137L172 136z"/>
<path style="fill:#f8e5b2; stroke:none;" d="M248 136L249 137L248 136M72 137L73 138L72 137z"/>
<path style="fill:#fcd47b; stroke:none;" d="M81 137L82 138L81 137z"/>
<path style="fill:#f8e5b2; stroke:none;" d="M175 137L176 138L175 137M183 137L184 138L183 137M8 138L9 139L8 138M81 138L82 139L81 138z"/>
<path style="fill:#fcd47b; stroke:none;" d="M86 138L87 139L86 138z"/>
<path style="fill:#f8e5b2; stroke:none;" d="M247 138L248 139L247 138M73 139L74 140L73 139z"/>
<path style="fill:#fcd47b; stroke:none;" d="M82 139L83 142L84 142L82 139M84 139L85 140L84 139z"/>
<path style="fill:#f8e5b2; stroke:none;" d="M174 139L175 140L174 139M182 139L183 140L182 139M82.3333 140.667L82.6667 141.333L82.3333 140.667z"/>
<path style="fill:#fcd47b; stroke:none;" d="M168 140L169 141L168 140z"/>
<path style="fill:#f8e5b2; stroke:none;" d="M244 140L245 141L244 140M74 141L75 142L74 141M173.333 141.667L173.667 142.333L173.333 141.667M181 141L182 142L181 141M245 141L246 142L245 141M83 142L84 143L83 142z"/>
<path style="fill:#fcd47b; stroke:none;" d="M172.333 142.667L172.667 143.333L172.333 142.667z"/>
<path style="fill:#f8e5b2; stroke:none;" d="M75 143L76 144L75 143z"/>
<path style="fill:#fcd47b; stroke:none;" d="M84 143L85 147L86 147L84 143z"/>
<path style="fill:#f8e5b2; stroke:none;" d="M180 143L181 144L180 143z"/>
<path style="fill:#fcd47b; stroke:none;" d="M86 144L87 145L86 144z"/>
<path style="fill:#f8e5b2; stroke:none;" d="M172 144L173 145L172 144M76 145L77 146L76 145M84 145L85 146L84 145z"/>
<path style="fill:#fcd47b; stroke:none;" d="M171 145L172 146L171 145z"/>
<path style="fill:#f8e5b2; stroke:none;" d="M179 145L180 146L179 145M14 146L15 147L14 146M171 146L172 147L171 146M241 146L242 147L241 146M15 147L16 148L15 147M77 147L78 148L77 147M85 147L86 148L85 147M170 147L171 148L170 147M178 147L179 148L178 147M240 147L241 148L240 147z"/>
<path style="fill:#fcd47b; stroke:none;" d="M86 148L87 149L86 148z"/>
<path style="fill:#f8e5b2; stroke:none;" d="M239 148L240 149L239 148M17 149L18 150L17 149M86 149L87 150L86 149z"/>
<path style="fill:#fcd47b; stroke:none;" d="M169 149L168 152L169 152L169 149z"/>
<path style="fill:#f8e5b2; stroke:none;" d="M238 149L239 150L238 149M18 150L19 151L18 150z"/>
<path style="fill:#fcd47b; stroke:none;" d="M87 150L88 151L87 150z"/>
<path style="fill:#f8e5b2; stroke:none;" d="M169 150L170 151L169 150M237 150L238 151L237 150M19 151L20 152L19 151M79 151L80 152L79 151M87 151L88 152L87 151M236 151L237 152L236 151M20 152L21 153L20 152z"/>
<path style="fill:#fcd47b; stroke:none;" d="M88 152L89 153L88 152z"/>
<path style="fill:#f8e5b2; stroke:none;" d="M168 152L169 153L168 152M235 152L236 153L235 152M21 153L22 154L21 153M88 153L89 154L88 153z"/>
<path style="fill:#fcd47b; stroke:none;" d="M90 153L91 154L90 153M167 153L168 154L167 153z"/>
<path style="fill:#f8e5b2; stroke:none;" d="M175 153L176 154L175 153M234 153L235 154L234 153M22 154L23 155L22 154z"/>
<path style="fill:#fcd47b; stroke:none;" d="M89 154L90 155L89 154z"/>
<path style="fill:#f8e5b2; stroke:none;" d="M167 154L168 155L167 154M233 154L234 155L233 154M89 155L90 156L89 155z"/>
<path style="fill:#fcd47b; stroke:none;" d="M166 155L167 156L166 155M90 156L91 157L90 156z"/>
<path style="fill:#f8e5b2; stroke:none;" d="M166 156L167 157L166 156M90 157L91 158L90 157z"/>
<path style="fill:#fcd47b; stroke:none;" d="M165 157L166 158L165 157z"/>
<path style="fill:#f8e5b2; stroke:none;" d="M27 158L28 159L27 158z"/>
<path style="fill:#fcd47b; stroke:none;" d="M91 158L92 159L91 158z"/>
<path style="fill:#f8e5b2; stroke:none;" d="M165 158L166 159L165 158M228 158L229 159L228 158M28 159L29 160L28 159z"/>
<path style="fill:#fcd47b; stroke:none;" d="M164 159L165 160L164 159z"/>
<path style="fill:#f8e5b2; stroke:none;" d="M227 159L228 160L227 159M29 160L30 161L29 160z"/>
<path style="fill:#fcd47b; stroke:none;" d="M92 160L93 163L94 163L92 160z"/>
<path style="fill:#f8e5b2; stroke:none;" d="M164 160L165 161L164 160M31 161L32 162L31 161M92 161L93 162L92 161z"/>
<path style="fill:#fcd47b; stroke:none;" d="M163 161L164 162L163 161z"/>
<path style="fill:#f8e5b2; stroke:none;" d="M163 162L164 163L163 162M33 163L34 164L33 163M93 163L94 164L93 163z"/>
<path style="fill:#fcd47b; stroke:none;" d="M162 163L163 164L162 163z"/>
<path style="fill:#f8e5b2; stroke:none;" d="M34 164L35 165L34 164z"/>
<path style="fill:#fcd47b; stroke:none;" d="M94 164L95 165L94 164z"/>
<path style="fill:#f8e5b2; stroke:none;" d="M162 164L163 165L162 164M221 164L222 165L221 164M94 165L95 166L94 165z"/>
<path style="fill:#fcd47b; stroke:none;" d="M161 165L162 166L161 165M95 166L96 167L95 166z"/>
<path style="fill:#f8e5b2; stroke:none;" d="M161 166L162 167L161 166M38 167L39 168L38 167M95 167L96 168L95 167z"/>
<path style="fill:#fcd47b; stroke:none;" d="M160 167L161 168L160 167M96 168L97 169L96 168z"/>
<path style="fill:#f8e5b2; stroke:none;" d="M160 168L161 169L160 168M88 169L89 170L88 169M96 169L97 170L96 169z"/>
<path style="fill:#fcd47b; stroke:none;" d="M159 169L160 170L159 169z"/>
<path style="fill:#f8e5b2; stroke:none;" d="M167 169L168 170L167 169M42 170L43 171L42 170M97.3333 170.667L97.6667 171.333L97.3333 170.667M159 170L160 171L159 170M213 170L214 171L213 170M89 171L90 172L89 171z"/>
<path style="fill:#fcd47b; stroke:none;" d="M158 171L159 172L158 171M98 172L99 173L98 172z"/>
<path style="fill:#f8e5b2; stroke:none;" d="M158 172L159 173L158 172M46 173L47 174L46 173M90 173L91 174L90 173M98 173L99 174L98 173z"/>
<path style="fill:#fcd47b; stroke:none;" d="M157 173L158 174L157 173M99 174L100 175L99 174z"/>
<path style="fill:#f8e5b2; stroke:none;" d="M157 174L158 175L157 174M49 175L50 176L49 175M91 175L92 176L91 175M99 175L100 176L99 175z"/>
<path style="fill:#fcd47b; stroke:none;" d="M156 175L157 176L156 175z"/>
<path style="fill:#f8e5b2; stroke:none;" d="M50 176L51 177L50 176z"/>
<path style="fill:#fcd47b; stroke:none;" d="M100 176L101 177L100 176z"/>
<path style="fill:#f8e5b2; stroke:none;" d="M156 176L157 177L156 176M205 176L206 177L205 176M92 177L93 178L92 177M100 177L101 178L100 177z"/>
<path style="fill:#fcd47b; stroke:none;" d="M155 177L156 178L155 177z"/>
<path style="fill:#f8e5b2; stroke:none;" d="M163 177L164 178L163 177M53 178L54 179L53 178M101.333 178.667L101.667 179.333L101.333 178.667M155 178L156 179L155 178M202 178L203 179L202 178z"/>
<path style="fill:#fcd47b; stroke:none;" d="M154 179L155 180L154 179z"/>
<path style="fill:#f8e5b2; stroke:none;" d="M102.333 180.667L102.667 181.333L102.333 180.667M57 181L58 182L57 181z"/>
<path style="fill:#fcd47b; stroke:none;" d="M116 181L117 182L116 181M119 181L120 182L119 181M132 181L133 182L132 181M136.667 181.333L137.333 181.667L136.667 181.333M153 181L152 183L153 181z"/>
<path style="fill:#f8e5b2; stroke:none;" d="M198 181L199 182L198 181M103 182L104 183L103 182z"/>
<path style="fill:#f9f9f9; stroke:none;" d="M112 182C114.357 187.47 117.619 196.903 124 198L124 182L112 182z"/>
<path style="fill:#f8e5b2; stroke:none;" d="M124 182L124 198L125 198L124 182z"/>
<path style="fill:#f9f9f9; stroke:none;" d="M132 182C132 185.168 130.389 194.992 133.588 196.824C138.193 199.461 143.135 184.946 144 182L132 182z"/>
<path style="fill:#fcd47b; stroke:none;" d="M144.333 182.667L144.667 183.333L144.333 182.667z"/>
<path style="fill:#f8e5b2; stroke:none;" d="M153 182L154 183L153 182M60 183L61 184L60 183M112 183L113 184L112 183M152 183L153 184L152 183M195 183L196 184L195 183M104 184L106 187L104 184M143 184L144 185L143 184z"/>
<path style="fill:#fcd47b; stroke:none;" d="M151 184L152 185L151 184z"/>
<path style="fill:#f8e5b2; stroke:none;" d="M63 185L64 186L63 185z"/>
<path style="fill:#fcd47b; stroke:none;" d="M105 185L106 186L105 185M113 185L114 186L113 185M143 185L144 186L143 185z"/>
<path style="fill:#f8e5b2; stroke:none;" d="M151 185L152 186L151 185M192 185L193 186L192 185z"/>
<path style="fill:#fcd47b; stroke:none;" d="M142.333 186.667L142.667 187.333L142.333 186.667M150 186L151 187L150 186z"/>
<path style="fill:#f8e5b2; stroke:none;" d="M66 187L67 188L66 187z"/>
<path style="fill:#fcd47b; stroke:none;" d="M114 187L115 188L114 187z"/>
<path style="fill:#f8e5b2; stroke:none;" d="M150 187L151 188L150 187M189 187L190 188L189 187M106 188L107 189L106 188M115 188L116 189L115 188M141 188L142 189L141 188M157 188L158 189L157 188M69 189L70 190L69 189z"/>
<path style="fill:#fcd47b; stroke:none;" d="M107 189L108 190L107 189M115 189L116 190L115 189z"/>
<path style="fill:#f8e5b2; stroke:none;" d="M140 189L141 190L140 189M149 189L150 190L149 189M186 189L187 190L186 189M99 190L100 191L99 190M107 190L108 191L107 190M116 190L117 191L116 190z"/>
<path style="fill:#fcd47b; stroke:none;" d="M140 190L141 191L140 190M148 190L149 191L148 190z"/>
<path style="fill:#f8e5b2; stroke:none;" d="M72 191L73 192L72 191z"/>
<path style="fill:#fcd47b; stroke:none;" d="M108 191L109 192L108 191M116 191L117 192L116 191z"/>
<path style="fill:#f8e5b2; stroke:none;" d="M183 191L184 192L183 191M100 192L101 193L100 192M117 192L118 193L117 192z"/>
<path style="fill:#fcd47b; stroke:none;" d="M139 192L140 193L139 192z"/>
<path style="fill:#f8e5b2; stroke:none;" d="M147.333 192.667L147.667 193.333L147.333 192.667M109 193L110 194L109 193z"/>
<path style="fill:#fcd47b; stroke:none;" d="M146.333 193.667L146.667 194.333L146.333 193.667z"/>
<path style="fill:#f8e5b2; stroke:none;" d="M180 193L181 194L180 193M101 194L102 195L101 194M118 194L119 195L118 194z"/>
<path style="fill:#fcd47b; stroke:none;" d="M138 194L139 195L138 194z"/>
<path style="fill:#f8e5b2; stroke:none;" d="M154 194L155 195L154 194M110 195L111 196L110 195M146 195L147 196L146 195M177 195L178 196L177 195M100 196L101 197L100 196M119 196L120 197L119 196z"/>
<path style="fill:#fcd47b; stroke:none;" d="M137 196L138 197L137 196M145 196L144 198L145 196z"/>
<path style="fill:#f8e5b2; stroke:none;" d="M155 196L156 197L155 196M81 197L82 198L81 197M111 197L112 198L111 197M132 197L133 198L132 197M136 197L137 198L136 197M145 197L146 198L145 197M174 197L175 198L174 197M144 198L145 199L144 198M84 199L85 200L84 199z"/>
<path style="fill:#fcd47b; stroke:none;" d="M112 199L113 200L112 199z"/>
<path style="fill:#f8e5b2; stroke:none;" d="M98 200L99 201L98 200M143 200L144 201L143 200M157 200L158 201L157 200M113 201L114 202L113 201z"/>
<path style="fill:#fcd47b; stroke:none;" d="M142 201L143 202L142 201z"/>
<path style="fill:#f8e5b2; stroke:none;" d="M142 202L143 203L142 202M166 202L167 203L166 202M103 203L104 204L103 203M114 203L115 204L114 203M92 204L93 205L92 204z"/>
<path style="fill:#fcd47b; stroke:none;" d="M115 204L116 205L115 204z"/>
<path style="fill:#f8e5b2; stroke:none;" d="M141 204L142 205L141 204M115 205L116 206L115 205z"/>
<path style="fill:#fcd47b; stroke:none;" d="M140 205L141 206L140 205z"/>
<path style="fill:#f8e5b2; stroke:none;" d="M149 205L150 206L149 205z"/>
<path style="fill:#fcd47b; stroke:none;" d="M116 206L117 207L116 206z"/>
<path style="fill:#f8e5b2; stroke:none;" d="M97 207L98 208L97 207M116 207L117 208L116 207z"/>
<path style="fill:#fcd47b; stroke:none;" d="M139 207L140 208L139 207z"/>
<path style="fill:#f8e5b2; stroke:none;" d="M147 207L148 208L147 207M158 207L159 208L158 207M117.333 208.667L117.667 209.333L117.333 208.667M139 208L140 209L139 208M109 209L110 210L109 209M138 209L139 210L138 209M102 210L103 211L102 210M118 210L119 211L118 210z"/>
<path style="fill:#fcd47b; stroke:none;" d="M137 210L138 211L137 210z"/>
<path style="fill:#f8e5b2; stroke:none;" d="M153 210L154 211L153 210z"/>
<path style="fill:#fcd47b; stroke:none;" d="M119 211L120 212L119 211z"/>
<path style="fill:#f8e5b2; stroke:none;" d="M137 211L138 212L137 211M119 212L120 213L119 212z"/>
<path style="fill:#fcd47b; stroke:none;" d="M136 212L137 213L136 212M120 213L121 214L120 213z"/>
<path style="fill:#f8e5b2; stroke:none;" d="M136 213L137 214L136 213M144 213L145 214L144 213M108 214L109 215L108 214M120 214L121 215L120 214z"/>
<path style="fill:#fcd47b; stroke:none;" d="M135 214L136 215L135 214z"/>
<path style="fill:#f8e5b2; stroke:none;" d="M112 215L113 216L112 215z"/>
<path style="fill:#fcd47b; stroke:none;" d="M121 215L122 216L121 215z"/>
<path style="fill:#f8e5b2; stroke:none;" d="M145 215L146 216L145 215M121 216L122 217L121 216z"/>
<path style="fill:#fcd47b; stroke:none;" d="M134 216L135 217L134 216z"/>
<path style="fill:#f8e5b2; stroke:none;" d="M122 217L123 218L122 217M133 218L134 219L133 218M123 219L124 220L123 219z"/>
<path style="fill:#fcd47b; stroke:none;" d="M124 220L125 221L124 220z"/>
<path style="fill:#f8e5b2; stroke:none;" d="M132 220L133 221L132 220M124 221L125 222L124 221z"/>
<path style="fill:#fcd47b; stroke:none;" d="M131 221L132 222L131 221M125 222L126 223L125 222z"/>
<path style="fill:#f8e5b2; stroke:none;" d="M131 222L132 223L131 222M125 223L126 224L125 223M130 223L131 224L130 223M126 224L130 227L130 226L126 224z"/>
<path style="fill:#bfc0c4; stroke:none;" d="M127.333 224.667L127.667 225.333L127.333 224.667z"/>
<path style="fill:#fcd47b; stroke:none;" d="M129 225L130 226L129 225M128 226L129 227L128 226z"/>
</svg>
