<svg width="12" height="13" viewBox="0 0 12 13" fill="none" xmlns="http://www.w3.org/2000/svg">
<path d="M5.4394 11.7266H6.34519C6.25314 11.7625 6.1539 11.7884 6.04651 11.8049L6.03804 11.8062C6.03778 11.8063 6.0375 11.8063 6.03722 11.8063C6.02316 11.8079 6.00284 11.81 5.98014 11.8121C5.95779 11.8142 5.93613 11.8161 5.9201 11.8174L5.91796 11.8176H5.81724C5.68523 11.8067 5.55664 11.7725 5.4394 11.7266Z" stroke="#FEE798" stroke-width="1.5"/>
<path d="M0.912914 10.7767L0.913267 10.7783C0.970815 11.0522 1.18527 11.2353 1.53987 11.2353H1.54835H1.55683H1.5653H1.57378H1.58225H1.59073H1.59921H1.60768H1.61616H1.62463H1.63311H1.64159H1.65006H1.65854H1.66701H1.67549H1.68397H1.69244H1.70092H1.70939H1.71787H1.72635H1.73482H1.7433H1.75177H1.76025H1.76873H1.7772H1.78568H1.79415H1.80263H1.81111H1.81958H1.82806H1.83653H1.84501H1.85349H1.86196H1.87044H1.87891H1.88739H1.89587H1.90434H1.91282H1.92129H1.92977H1.93825H1.94672H1.9552H1.96367H1.97215H1.98063H1.9891H1.99758H2.00605H2.01453H2.02301H2.03148H2.03996H2.04843H2.05691H2.06539H2.07386H2.08234H2.09081H2.09929H2.10777H2.11624H2.12472H2.13319H2.14167H2.15015H2.15862H2.1671H2.17557H2.18405H2.19252H2.201H2.20948H2.21795H2.22643H2.2349H2.24338H2.25186H2.26033H2.26881H2.27728H2.28576H2.29424H2.30271H2.31119H2.31966H2.32814H2.33662H2.34509H2.35357H2.36204H2.37052H2.379H2.38747H2.39595H2.40442H2.4129H2.42138H2.42985H2.43833H2.4468H2.45528H2.46376H2.47223H2.48071H2.48918H2.49766H2.50614H2.51461H2.52309H2.53156H2.54004H2.54852H2.55699H2.56547H2.57394H2.58242H2.5909H2.59937H2.60785H2.61632H2.6248H2.63328H2.64175H2.65023H2.6587H2.66718H2.67566H2.68413H2.69261H2.70108H2.70956H2.71804H2.72651H2.73499H2.74346H2.75194H2.76042H2.76889H2.77737H2.78584H2.79432H2.80279H2.81127H2.81975H2.82822H2.8367H2.84518H2.85365H2.86213H2.8706H2.87908H2.88755H2.89603H2.90451H2.91298H2.92146H2.92993H2.93841H2.94689H2.95536H2.96384H2.97231H2.98079H2.98927H2.99774H3.00622H3.01469H3.02317H3.03165H3.04012H3.0486H3.05707H3.06555H3.07403H3.0825H3.09098H3.09945H3.10793H3.11641H3.12488H3.13336H3.14183H3.15031H3.15879H3.16726H3.17574H3.18421H3.19269H3.20117H3.20964H3.21812H3.22659H3.23507H3.24355H3.25202H3.2605H3.26897H3.27745H3.28593H3.2944H3.30288H3.31135H3.31983H3.32831H3.33678H3.34526H3.35373H3.36221H3.37069H3.37916H3.38764H3.39611H3.40459H3.41307H3.42154H3.43002H3.43849H3.44697H3.45545H3.46392H3.4724H3.48087H3.48935H3.49782H3.5063H3.51478H3.52325H3.53173H3.5402H3.54868H3.55716H3.56563H3.57411H3.58258H3.59106H3.59954H3.60801H3.61649H3.62496H3.63344H3.64192H3.65039H3.65887H3.66734H3.67582H3.6843H3.69277H3.70125H3.70972H3.7182H3.72668H3.73515H3.74363H3.7521H3.76058H3.76906H3.77753H3.78601H3.79448H3.80296H3.81144H3.81991H3.82839H3.83686H3.84534H3.85382H3.86229H3.87077H3.87924H3.88772H3.8962H3.90467H3.91315H3.92162H3.9301H3.93858H3.94705H3.95553H3.964H3.97248H3.98096H3.98943H3.99791H4.00638H4.01486H4.02334H4.03181H4.04029H4.04876H4.05724H4.06572H4.07419H4.08267H4.09114H4.09962H4.10809H4.11657H4.12505H4.13352H4.142H4.15047H4.15895H4.16743H4.1759H4.18438H4.19285H4.20133H4.20981H4.21828H4.22676H4.23523H4.24371H4.25219H4.26066H4.26914H4.27761H4.28609H4.29457H4.30304H4.31152H4.31999H4.32847H4.33695H4.34542H4.3539H4.36237H4.37085H4.37933H4.3878H4.39628H4.40475H4.41323H4.42171H4.43018H4.43866H4.44713H4.45561H4.46409H4.47256H4.48104H4.48951H4.49799H4.50647H4.51494H4.52342H4.53189H4.54037H4.54885H4.55732H4.5658H4.57427H4.58275H4.59123H4.5997H4.60818H4.61665H4.62513H4.63361H4.64208H4.65056H4.65903H4.66751H4.67598H4.68446H4.69294H4.70141H4.70989H4.71836H4.72684H4.73532H4.74379H4.75227H4.76074H4.76922H4.7777H4.78617H4.79465H4.80312H4.8116H4.82008H4.82855H4.83703H4.8455H4.85398H4.86246H4.87093H4.87941H4.88788H4.89636H4.90484H4.91331H4.92179H4.93026H4.93874H4.94722H4.95569H4.96417H4.97264H4.98112H4.9896H4.99807H5.00655H5.01502H5.0235H5.03198H5.04045H5.04893H5.0574H5.06588H5.07436H5.08283H5.09131H5.09978H5.10826H5.11674H5.12521H5.13369H5.14216H5.15064H5.15912H5.16759H5.17607H5.18454H5.19302H5.2015H5.20997H5.21845H5.22692H5.2354H5.24388H5.25235H5.26083H5.2693H5.27778H5.28626H5.29473H5.30321H5.31168H5.32016H5.32864H5.33711H5.34559H5.35406H5.36254H5.37102H5.37949H5.38797H5.39644H5.40492H5.41339H5.42187H5.43035H5.43882H5.4473H5.45577H5.46425H5.47273H5.4812H5.48968H5.49815H5.50663H5.51511H5.52358H5.53206H5.54053H5.54901H5.55749H5.56596H5.57444H5.58291H5.59139H5.59987H5.60834H5.61682H5.62529H5.63377H5.64225H5.65072H5.6592H5.66767H5.67615H5.68463H5.6931H5.70158H5.71005H5.71853H5.72701H5.73548H5.74396H5.75243H5.76091H5.76939H5.77786H5.78634H5.79481H5.80329H5.81177H5.82024H5.82872H5.83719H5.84567H5.85415H5.86262H5.8711H5.87944H5.87957L8.55658 11.2343H8.55671C8.74596 11.2343 8.93437 11.2347 9.12234 11.2351C9.49656 11.2359 9.86901 11.2368 10.2427 11.2343M0.912914 10.7767L10.245 11.5843M0.912914 10.7767C0.861756 10.5389 0.927951 10.352 1.1312 10.1771L1.13129 10.177M0.912914 10.7767L1.13129 10.177M10.2427 11.2343L10.245 11.5843M10.2427 11.2343C10.2427 11.2343 10.2427 11.2343 10.2427 11.2343L10.245 11.5843M10.2427 11.2343C10.6428 11.2316 10.8905 10.9546 10.8606 10.5816M10.245 11.5843C10.8419 11.5803 11.2562 11.1359 11.2095 10.5536M10.8606 10.5816C10.8606 10.5817 10.8606 10.5818 10.8606 10.5819L11.2095 10.5536M10.8606 10.5816C10.8478 10.4254 10.7643 10.2946 10.5806 10.1291M10.8606 10.5816L11.2095 10.5536M11.2095 10.5536L10.5806 10.1291M10.5806 10.1291C9.80779 9.43326 9.35208 8.55247 9.28614 7.50104M10.5806 10.1291L9.28614 7.50104M1.13129 10.177C1.46136 9.89281 1.74164 9.55549 1.96053 9.17895C2.3283 8.55005 2.49627 7.86987 2.49809 7.1546V7.15371M1.13129 10.177L2.49809 7.15371M2.49809 7.15371C2.49809 7.01027 2.49764 6.86782 2.49719 6.72602C2.496 6.35151 2.49482 5.98156 2.50203 5.6099L2.50203 5.60982M2.49809 7.15371L2.50203 5.60982M2.50203 5.60982C2.53221 4.03429 3.72933 2.64929 5.28791 2.38814C5.34868 2.37813 5.48745 2.35133 5.59172 2.23262C5.70276 2.1062 5.70495 1.95799 5.70192 1.88665L5.70189 1.88601M2.50203 5.60982L5.70189 1.88601M5.70189 1.88601C5.69541 1.74006 5.69655 1.5912 5.70201 1.43934L5.70201 1.4392M5.70189 1.88601L5.70201 1.4392M5.70201 1.4392C5.70366 1.39274 5.72329 1.34871 5.75678 1.3164C5.79027 1.28409 5.83501 1.26602 5.88158 1.26602C5.92815 1.26602 5.97289 1.28409 6.00638 1.3164C6.03987 1.34871 6.05949 1.39274 6.06115 1.4392L6.06115 1.43936M5.70201 1.4392L6.06115 1.43936M6.06115 1.43936C6.06682 1.59677 6.06593 1.75583 6.06108 1.91743L6.06093 1.91743M6.06115 1.43936L6.06093 1.91743M6.06093 1.91743V1.92793M6.06093 1.91743V1.92793M6.06093 1.92793C6.06093 1.9915 6.06886 2.12317 6.16878 2.23737C6.26476 2.34708 6.38852 2.37476 6.44948 2.38464C7.90921 2.64596 9.00075 3.75843 9.22806 5.21819C9.25229 5.40786 9.26387 5.59894 9.26274 5.79015L9.26265 5.79015M6.06093 1.92793L9.26265 5.79015M9.26265 5.79015L9.26278 5.79805M9.26265 5.79015L9.26278 5.79805M9.26278 5.79805C9.26584 5.98193 9.2653 6.17381 9.26474 6.36962M9.26278 5.79805L9.26474 6.36962M9.26474 6.36962C9.26369 6.74189 9.2626 7.12834 9.28614 7.50104M9.26474 6.36962L9.28614 7.50104" stroke="#FEE798" stroke-width="0.7"/>
</svg>
