<svg width="11" height="14" viewBox="0 0 11 14" fill="none" xmlns="http://www.w3.org/2000/svg">
<path fill-rule="evenodd" clip-rule="evenodd" d="M5.71274 12.884C3.28555 12.884 1.21277 12.4989 1.21277 10.9565C1.21277 9.41413 3.2724 7.99023 5.71274 7.99023C8.14 7.99023 10.2128 9.40032 10.2128 10.9427C10.2128 12.4845 8.15315 12.884 5.71274 12.884Z" stroke="#FEE798" stroke-width="0.7" stroke-linecap="round" stroke-linejoin="round"/>
<path fill-rule="evenodd" clip-rule="evenodd" d="M5.7079 6.76546C7.30079 6.76546 8.59177 5.4491 8.59177 3.82495C8.59177 2.20079 7.30079 0.883789 5.7079 0.883789C4.11509 0.883789 2.82349 2.20079 2.82349 3.82495C2.81811 5.44361 4.10016 6.76003 5.68759 6.76546C5.69475 6.76546 5.70133 6.76546 5.7079 6.76546Z" stroke="#FEE798" stroke-width="0.7" stroke-linecap="round" stroke-linejoin="round"/>
</svg>
