<svg width="11" height="9" viewBox="0 0 11 9" fill="none" xmlns="http://www.w3.org/2000/svg">
<path d="M1.17181 0.186523C0.64366 0.186523 0.215332 0.614828 0.215332 1.14336C0.215332 1.67152 0.64366 2.09946 1.17181 2.09946C1.69997 2.09946 2.12829 1.67152 2.12829 1.14336C2.12829 0.614828 1.69997 0.186523 1.17181 0.186523Z" fill="#FEE798" stroke="#00ADA6" stroke-width="0.3"/>
<path d="M1.17181 3.06445C0.64366 3.06445 0.215332 3.4924 0.215332 4.02093C0.215332 4.54909 0.64366 4.97739 1.17181 4.97739C1.69997 4.97739 2.12829 4.54909 2.12829 4.02093C2.12829 3.4924 1.69997 3.06445 1.17181 3.06445Z" fill="#FEE798" stroke="#00ADA6" stroke-width="0.3"/>
<path d="M1.17181 5.94141C0.64366 5.94141 0.215332 6.36971 0.215332 6.89786C0.215332 7.42602 0.64366 7.85435 1.17181 7.85435C1.69997 7.85435 2.12829 7.42602 2.12829 6.89786C2.12829 6.36971 1.69997 5.94141 1.17181 5.94141Z" fill="#FEE798" stroke="#00ADA6" stroke-width="0.3"/>
<path d="M9.58133 0.423828H3.60493C3.25605 0.423828 2.97314 0.745899 2.97314 1.14343C2.97314 1.54063 3.25603 1.86267 3.60493 1.86267H9.58133C9.93018 1.86267 10.2131 1.54063 10.2131 1.14343C10.2131 0.745899 9.93018 0.423828 9.58133 0.423828Z" fill="#FEE798" stroke="#00ADA6" stroke-width="0.3"/>
<path d="M9.58133 3.30078H3.60493C3.25605 3.30078 2.97314 3.62283 2.97314 4.02038C2.97314 4.41758 3.25603 4.73963 3.60493 4.73963H9.58133C9.93018 4.73963 10.2131 4.41758 10.2131 4.02038C10.2131 3.62283 9.93018 3.30078 9.58133 3.30078Z" fill="#FEE798" stroke="#00ADA6" stroke-width="0.3"/>
<path d="M9.58133 6.17871H3.60493C3.25605 6.17871 2.97314 6.50076 2.97314 6.89796C2.97314 7.29513 3.25603 7.61717 3.60493 7.61717H9.58133C9.93018 7.61717 10.2131 7.29513 10.2131 6.89796C10.2131 6.50073 9.93018 6.17871 9.58133 6.17871Z" fill="#FEE798" stroke="#00ADA6" stroke-width="0.3"/>
</svg>
