<svg width="13" height="13" viewBox="0 0 13 13" fill="none" xmlns="http://www.w3.org/2000/svg">
<g clip-path="url(#clip0_514_5447)">
<path d="M5.7129 6.32174V0.907234C5.7129 0.769234 5.60089 0.657227 5.46289 0.657227C2.56789 0.657227 0.212891 3.23673 0.212891 6.40722C0.212891 9.5777 2.7924 12.1572 5.96288 12.1572C7.38139 12.1572 8.14888 11.9002 9.12188 11.1002C9.22639 11.0142 9.24338 10.8607 9.16039 10.7537L5.7129 6.32174ZM5.96288 11.6572C3.06788 11.6572 0.712883 9.30224 0.712883 6.40724C0.712883 3.60524 2.70938 1.30874 5.21288 1.16425V6.40724C5.21288 6.46274 5.23137 6.51674 5.26587 6.56073L8.61387 10.8652C7.82438 11.4682 7.16588 11.6572 5.96288 11.6572Z" fill="#FEE798" stroke="#FEE798" stroke-width="0.1"/>
<path d="M6.4629 6.15723H11.9629C12.1009 6.15723 12.2129 6.04522 12.2129 5.90722C12.2129 2.73673 9.63338 0.157227 6.4629 0.157227C6.3249 0.157227 6.21289 0.269234 6.21289 0.407234V5.90724C6.21289 6.04522 6.3249 6.15723 6.4629 6.15723ZM6.71288 0.663219C9.40939 0.790227 11.5799 2.96073 11.7069 5.65721H6.71288V0.663219Z" fill="#FEE798" stroke="#FEE798" stroke-width="0.1"/>
<path d="M11.9629 6.65723H6.96293C6.86693 6.65723 6.77843 6.71273 6.73692 6.79973C6.69541 6.88673 6.70793 6.98973 6.76842 7.06422L10.0184 11.0877C10.0619 11.1422 10.1259 11.1752 10.1954 11.1802C10.2014 11.1807 10.2069 11.1807 10.2129 11.1807C10.2759 11.1807 10.3369 11.1567 10.3834 11.1137C11.5459 10.0292 12.2129 8.49623 12.2129 6.90723C12.2129 6.76923 12.1009 6.65723 11.9629 6.65723ZM10.2344 10.5592L7.48643 7.15724H11.7069C11.6454 8.42823 11.1194 9.64373 10.2344 10.5592Z" fill="#FEE798" stroke="#FEE798" stroke-width="0.1"/>
</g>
<defs>
<clipPath id="clip0_514_5447">
<rect width="12" height="12" fill="white" transform="translate(0.212891 0.157227)"/>
</clipPath>
</defs>
</svg>
