<?xml version="1.0" encoding="utf-8"?>
<!-- Generator: Adobe Illustrator 24.3.0, SVG Export Plug-In . SVG Version: 6.00 Build 0)  -->
<svg version="1.1" id="Слой_3" xmlns="http://www.w3.org/2000/svg" xmlns:xlink="http://www.w3.org/1999/xlink" x="0px" y="0px"
	 viewBox="0 0 176.21315 40.708313" style="enable-background:new 0 0 176.21315 40.708313;" xml:space="preserve">
<style type="text/css">
	.st0{fill:url(#SVGID_1_);}
	.st1{fill:url(#SVGID_2_);}
	.st2{fill:url(#SVGID_3_);}
	.st3{fill:url(#SVGID_4_);}
	.st4{fill:url(#SVGID_5_);}
	.st5{fill:url(#SVGID_6_);}
	.st6{fill:url(#SVGID_7_);}
	.st7{fill:url(#SVGID_8_);}
	.st8{fill:url(#SVGID_9_);}
	.st9{fill:url(#SVGID_10_);}
	.st10{fill:url(#SVGID_11_);}
	.st11{fill:url(#SVGID_12_);}
	.st12{fill:url(#SVGID_13_);}
	.st13{fill:url(#SVGID_14_);}
</style>
<g>
	<g>
		<g>
			
				<linearGradient id="SVGID_1_" gradientUnits="userSpaceOnUse" x1="100.5840988" y1="13.6654024" x2="100.5840988" y2="41.1948128">
				<stop  offset="0" style="stop-color:#FFE899"/>
				<stop  offset="1" style="stop-color:#FAB639"/>
			</linearGradient>
			<path class="st0" d="M96.4146271,36.6530075h12.4295197v3.4297714H92.3240509V18.056303h16.0792389v3.4297733H96.4146271
				v5.7268085h10.635498v3.3671341h-10.635498V36.6530075z"/>
			
				<linearGradient id="SVGID_2_" gradientUnits="userSpaceOnUse" x1="121.6038284" y1="13.6654024" x2="121.6038284" y2="41.1948128">
				<stop  offset="0" style="stop-color:#FFE899"/>
				<stop  offset="1" style="stop-color:#FAB639"/>
			</linearGradient>
			<path class="st1" d="M129.1397095,18.056303h4.0910645l-9.597435,22.0264759h-4.0279388l-9.6285172-22.0264759h4.4367599
				l7.3314743,16.992033L129.1397095,18.056303z"/>
			
				<linearGradient id="SVGID_3_" gradientUnits="userSpaceOnUse" x1="143.8189392" y1="13.6654024" x2="143.8189392" y2="41.1948128">
				<stop  offset="0" style="stop-color:#FFE899"/>
				<stop  offset="1" style="stop-color:#FAB639"/>
			</linearGradient>
			<path class="st2" d="M139.6494598,36.6530075h12.4295197v3.4297714h-16.5200958V18.056303h16.0792389v3.4297733h-11.9886627
				v5.7268085h10.635498v3.3671341h-10.635498V36.6530075z"/>
			
				<linearGradient id="SVGID_4_" gradientUnits="userSpaceOnUse" x1="166.4270782" y1="13.6654024" x2="166.4270782" y2="41.1948128">
				<stop  offset="0" style="stop-color:#FFE899"/>
				<stop  offset="1" style="stop-color:#FAB639"/>
			</linearGradient>
			<path class="st3" d="M172.154129,18.056303h4.059021v22.0264759h-3.3671417l-12.1459808-14.9149437v14.9149437h-4.0590057
				V18.056303h3.3671265l12.1459808,14.9149456V18.056303z"/>
		</g>
		<g>
			<linearGradient id="SVGID_5_" gradientUnits="userSpaceOnUse" x1="56.1203842" y1="13.268919" x2="57.5321465" y2="40.0924492">
				<stop  offset="0" style="stop-color:#00AEA6"/>
				<stop  offset="0.9946524" style="stop-color:#00877E"/>
			</linearGradient>
			<path class="st4" d="M65.1937637,40.0828857l-2.2028351-5.0975609H51.9776878l-2.1712799,5.0975609h-4.2163315
				l9.9120598-22.0264778h4.0274582l9.9436188,22.0264778H65.1937637z M53.3624115,31.7759781h8.2753487l-4.1532135-9.628994
				L53.3624115,31.7759781z"/>
			<linearGradient id="SVGID_6_" gradientUnits="userSpaceOnUse" x1="78.6942062" y1="12.0808229" x2="80.1059723" y2="38.9043503">
				<stop  offset="0" style="stop-color:#00AEA6"/>
				<stop  offset="0.9946524" style="stop-color:#00877E"/>
			</linearGradient>
			<path class="st5" d="M72.273262,40.0828857V18.0564079h4.0905762v18.5651474h11.5167313v3.4613304H72.273262z"/>
			<linearGradient id="SVGID_7_" gradientUnits="userSpaceOnUse" x1="82.1432877" y1="11.899292" x2="83.5550537" y2="38.7228203">
				<stop  offset="0" style="stop-color:#00AEA6"/>
				<stop  offset="0.9946524" style="stop-color:#00877E"/>
			</linearGradient>
			<path class="st6" d="M78.8503036,34.2124634V18.0615005h4.0905762v12.6896343h4.6619644v3.4613285H78.8503036z"/>
		</g>
	</g>
	<g>
		<g>
			<g>
				
					<linearGradient id="SVGID_8_" gradientUnits="userSpaceOnUse" x1="22.1995144" y1="-1.8840396" x2="22.9053974" y2="38.3512535">
					<stop  offset="0" style="stop-color:#00AEA6"/>
					<stop  offset="0.9946524" style="stop-color:#00877E"/>
				</linearGradient>
				<path class="st7" d="M22.8538132,40.708313c0,0,1.2453728-2.1468506,2.9469662-5.2973099H19.906847
					C21.6084423,38.5614624,22.8538132,40.708313,22.8538132,40.708313z"/>
				
					<linearGradient id="SVGID_9_" gradientUnits="userSpaceOnUse" x1="22.6031456" y1="-1.8911209" x2="23.3090286" y2="38.3441734">
					<stop  offset="0" style="stop-color:#00AEA6"/>
					<stop  offset="0.9946524" style="stop-color:#00877E"/>
				</linearGradient>
				<path class="st8" d="M22.8538074,0C15.990778,0,10.427206,5.5635986,10.427206,12.4266272
					c0,4.077178,4.3856602,13.2913427,7.9461746,20.1000748h8.9608536
					c3.5605145-6.808733,7.9461727-16.0228977,7.9461727-20.1000748C35.280407,5.5635986,29.7168369,0,22.8538074,0z
					 M22.8538074,17.6408234c-3.1528149,0-5.708662-2.5558739-5.708662-5.7086897s2.5558472-5.7086625,5.708662-5.7086625
					s5.7086887,2.5558476,5.7086887,5.7086625S26.0066223,17.6408234,22.8538074,17.6408234z"/>
			</g>
			<linearGradient id="SVGID_10_" gradientUnits="userSpaceOnUse" x1="25.2020054" y1="-1.936715" x2="25.9078884" y2="38.2985802">
				<stop  offset="0" style="stop-color:#00AEA6"/>
				<stop  offset="0.9946524" style="stop-color:#00877E"/>
			</linearGradient>
			<polygon class="st9" points="25.3964443,36.1400337 24.2471638,35.5289459 26.2662449,31.7312756 27.4155254,32.3423615 			"/>
			
				<linearGradient id="SVGID_11_" gradientUnits="userSpaceOnUse" x1="19.2254028" y1="-1.8318623" x2="19.9312859" y2="38.4034309">
				<stop  offset="0" style="stop-color:#00AEA6"/>
				<stop  offset="0.9946524" style="stop-color:#00877E"/>
			</linearGradient>
			<polygon class="st10" points="20.3842316,36.1991501 18.1761456,32.1531448 19.3190708,31.5293465 21.5271568,35.5753517 			"/>
			
				<linearGradient id="SVGID_12_" gradientUnits="userSpaceOnUse" x1="22.2229996" y1="-1.8844517" x2="22.9288826" y2="38.3508415">
				<stop  offset="0" style="stop-color:#00AEA6"/>
				<stop  offset="0.9946524" style="stop-color:#00877E"/>
			</linearGradient>
			<rect x="22.2028675" y="32.0531349" class="st11" width="1.3018404" height="4.0345612"/>
		</g>
		<g>
			<linearGradient id="SVGID_13_" gradientUnits="userSpaceOnUse" x1="2.729528" y1="-10.5365744" x2="13.5530577" y2="48.2869568">
				<stop  offset="0" style="stop-color:#FFE899"/>
				<stop  offset="1" style="stop-color:#FAB639"/>
			</linearGradient>
			<path class="st12" d="M17.1074352,35.6132202l1.0730076-0.6194992l-1.194212-2.258049
				c-1.4905357-2.8503208-3.119173-6.104496-4.5356789-9.254528c-2.2630062,0.9962921-4.9603543,0.1505775-6.2251258-2.0400314
				c-1.3559856-2.3485603-0.5512924-5.3516483,1.7972684-6.7075939c0.3318081-0.1915579,0.6773729-0.3353195,1.0288038-0.4423761
				c-0.2267132-0.9638023-0.3546944-1.8186674-0.3546944-2.5237598c0-1.0238886,0.1224041-2.0186319,0.3468037-2.9740686
				c-1.2672086,0.1972799-2.5201654,0.6245785-3.6974406,1.304265C0.2337897,13.0491943-1.5177885,19.58634,1.4337859,24.698698
				c1.7216692,2.9819984,8.7214966,7.833662,14.257267,11.3601398l-0.0010738,0.0017357l0.0893145,0.0544662
				c0.0726242,0.0462303,0.1461573,0.0932198,0.2182856,0.1389694l0.0049171-0.0028496l2.4130039,1.4715729l-0.0351963,0.0203247
				c0.6741924,0.4151955,1.2961674,0.793148,1.8500633,1.1267548l-1.0554905-1.9958305L17.1074352,35.6132202z"/>
		</g>
		<g>
			
				<linearGradient id="SVGID_14_" gradientUnits="userSpaceOnUse" x1="39.9709969" y1="-16.1116962" x2="35.7357025" y2="26.9471264">
				<stop  offset="0" style="stop-color:#FFE899"/>
				<stop  offset="1" style="stop-color:#FAB639"/>
			</linearGradient>
			<path class="st13" d="M28.5042896,35.6132202L27.431284,34.993721l1.194212-2.258049
				c1.4905357-2.8503208,3.119173-6.104496,4.5356789-9.254528c2.2630043,0.9962921,4.9603539,0.1505775,6.2251244-2.0400314
				c1.3559875-2.3485603,0.5512924-5.3516483-1.7972679-6.7075939c-0.3318062-0.1915579-0.677372-0.3353195-1.0288048-0.4423761
				c0.2267151-0.9638023,0.3546944-1.8186674,0.3546944-2.5237598c0-1.0238886-0.1224022-2.0186319-0.3468018-2.9740686
				c1.2672081,0.1972799,2.5201645,0.6245785,3.6974411,1.304265c5.1123772,2.9516153,6.8639565,9.4887609,3.9123802,14.601119
				c-1.7216682,2.9819984-8.7214966,7.833662-14.257267,11.3601398l0.0010738,0.0017357l-0.0893135,0.0544662
				c-0.0726242,0.0462303-0.1461582,0.0932198-0.2182865,0.1389694L29.60923,36.2511597l-2.4130039,1.4715729l0.0351963,0.0203247
				c-0.6741924,0.4151955-1.2961674,0.793148-1.8500633,1.1267548l1.0554905-1.9958305L28.5042896,35.6132202z"/>
		</g>
	</g>
</g>
</svg>
