<svg width="170" height="50" viewBox="0 0 170 50" fill="none" xmlns="http://www.w3.org/2000/svg">
<g clip-path="url(#clip0)">
<path fill-rule="evenodd" clip-rule="evenodd" d="M0.666687 43.3333V6.66667C0.666687 2.98477 3.65145 0 7.33335 0H162.667C166.349 0 169.333 2.98477 169.333 6.66667V43.3333C169.333 47.0152 166.349 50 162.667 50H7.33335C3.65146 50 0.666687 47.0152 0.666687 43.3333ZM1.66669 43.3333V6.66667C1.66669 3.53705 4.20374 1 7.33335 1H162.667C165.796 1 168.333 3.53705 168.333 6.66667V43.3333C168.333 46.4629 165.796 49 162.667 49H7.33335C4.20374 49 1.66669 46.4629 1.66669 43.3333Z" fill="#0C0B3D"/>
<path d="M38.7815 26.0184C38.7644 23.0879 40.0921 20.8793 42.7733 19.2508C41.2737 17.1023 39.005 15.9207 36.0143 15.693C33.1827 15.4695 30.0847 17.343 28.9503 17.343C27.7515 17.343 25.01 15.7703 22.853 15.7703C18.4015 15.8391 13.6706 19.3195 13.6706 26.4008C13.6706 28.4934 14.053 30.6547 14.8179 32.8805C15.8405 35.8109 19.5272 42.991 23.3729 42.875C25.3839 42.8277 26.8061 41.4484 29.4229 41.4484C31.9624 41.4484 33.2772 42.875 35.5202 42.875C39.4003 42.8191 42.7347 36.2922 43.7058 33.3531C38.5022 30.8996 38.7815 26.1688 38.7815 26.0184ZM34.2655 12.9129C36.444 10.3262 36.2464 7.97148 36.1819 7.125C34.2569 7.23672 32.0311 8.43555 30.7636 9.90938C29.3671 11.4906 28.5464 13.4457 28.7225 15.65C30.8022 15.809 32.7015 14.7391 34.2655 12.9129Z" fill="#0C0B3D"/>
<path d="M62.2514 36.1826H60.0444L58.8355 32.3663H54.6335L53.482 36.1826H51.3334L55.4965 23.1902H58.0678L62.2514 36.1826ZM58.4711 30.7652L57.3779 27.3726C57.2622 27.026 57.0455 26.2099 56.7258 24.9251H56.6869C56.5596 25.4777 56.3546 26.2938 56.0728 27.3726L54.9989 30.7652H58.4711Z" fill="#0C0B3D"/>
<path d="M72.9575 31.3833C72.9575 32.9766 72.5289 34.236 71.6718 35.1605C70.9041 35.9836 69.9508 36.3946 68.8128 36.3946C67.5845 36.3946 66.7021 35.9513 66.1647 35.0649H66.1258V40H64.054V29.8984C64.054 28.8967 64.0278 27.8687 63.9772 26.8143H65.7993L65.915 28.2992H65.9538C66.6448 27.1804 67.6933 26.6219 69.1005 26.6219C70.2005 26.6219 71.1189 27.0583 71.8535 27.9321C72.5902 28.8069 72.9575 29.9569 72.9575 31.3833ZM70.8468 31.4594C70.8468 30.5476 70.6427 29.7958 70.2326 29.2042C69.7846 28.5872 69.1831 28.2787 68.429 28.2787C67.9178 28.2787 67.4533 28.4505 67.0384 28.7893C66.6224 29.131 66.3503 29.5772 66.223 30.1297C66.1589 30.3875 66.1268 30.5984 66.1268 30.7643V32.3264C66.1268 33.0078 66.3348 33.5829 66.7507 34.0525C67.1666 34.5221 67.7069 34.7564 68.3716 34.7564C69.152 34.7564 69.7593 34.4537 70.1937 33.8504C70.6291 33.246 70.8468 32.4494 70.8468 31.4594Z" fill="#0C0B3D"/>
<path d="M83.6834 31.3833C83.6834 32.9766 83.2549 34.236 82.3968 35.1605C81.63 35.9836 80.6767 36.3946 79.5388 36.3946C78.3104 36.3946 77.428 35.9513 76.8916 35.0649H76.8527V40H74.7809V29.8984C74.7809 28.8967 74.7547 27.8687 74.7041 26.8143H76.5262L76.6419 28.2992H76.6807C77.3707 27.1804 78.4193 26.6219 79.8274 26.6219C80.9265 26.6219 81.8448 27.0583 82.5814 27.9321C83.3151 28.8069 83.6834 29.9569 83.6834 31.3833ZM81.5727 31.4594C81.5727 30.5476 81.3677 29.7958 80.9576 29.2042C80.5096 28.5872 79.91 28.2787 79.1549 28.2787C78.6428 28.2787 78.1792 28.4505 77.7633 28.7893C77.3474 29.131 77.0763 29.5772 76.949 30.1297C76.8858 30.3875 76.8527 30.5984 76.8527 30.7643V32.3264C76.8527 33.0078 77.0607 33.5829 77.4747 34.0525C77.8906 34.5211 78.4309 34.7564 79.0976 34.7564C79.8779 34.7564 80.4853 34.4537 80.9197 33.8504C81.355 33.246 81.5727 32.4494 81.5727 31.4594Z" fill="#0C0B3D"/>
<path d="M95.6754 32.5393C95.6754 33.6445 95.2935 34.5436 94.5268 35.2378C93.6842 35.9963 92.5113 36.3751 91.004 36.3751C89.6124 36.3751 88.4968 36.1057 87.6524 35.5658L88.1324 33.8309C89.042 34.3835 90.04 34.6608 91.1275 34.6608C91.9078 34.6608 92.5152 34.4831 92.9515 34.1297C93.3859 33.7763 93.6026 33.3018 93.6026 32.7102C93.6026 32.183 93.4238 31.7388 93.0652 31.3785C92.7085 31.0183 92.1128 30.6834 91.281 30.3739C89.0167 29.5255 87.8856 28.2827 87.8856 26.6484C87.8856 25.5803 88.2821 24.7046 89.076 24.0231C89.8671 23.3407 90.9224 23 92.2421 23C93.4189 23 94.3965 23.206 95.1769 23.617L94.6589 25.3138C93.9301 24.9155 93.106 24.7163 92.1838 24.7163C91.4549 24.7163 90.8855 24.8969 90.4773 25.2562C90.1324 25.5774 89.9594 25.9689 89.9594 26.4326C89.9594 26.9462 90.1566 27.3708 90.5531 27.7047C90.8981 28.0132 91.5249 28.3471 92.4345 28.7074C93.5472 29.1574 94.3645 29.6837 94.8902 30.287C95.414 30.8884 95.6754 31.6411 95.6754 32.5393Z" fill="#0C0B3D"/>
<path d="M102.525 28.3765H100.241V32.925C100.241 34.0819 100.644 34.6599 101.45 34.6599C101.821 34.6599 102.128 34.6277 102.371 34.5632L102.428 36.1439C102.02 36.2971 101.482 36.3743 100.817 36.3743C99.9985 36.3743 99.3591 36.1234 98.8975 35.6225C98.4379 35.1207 98.2066 34.2791 98.2066 33.0969V28.3746H96.8461V26.8125H98.2066V25.0972L100.241 24.4802V26.8125H102.525V28.3765Z" fill="#0C0B3D"/>
<path d="M112.829 31.4214C112.829 32.8614 112.419 34.0437 111.601 34.9682C110.743 35.9201 109.604 36.3946 108.184 36.3946C106.816 36.3946 105.726 35.9386 104.914 35.0268C104.102 34.1149 103.695 32.9639 103.695 31.5766C103.695 30.1249 104.113 28.9357 104.952 28.0112C105.789 27.0857 106.918 26.6229 108.338 26.6229C109.706 26.6229 110.807 27.0788 111.638 27.9917C112.433 28.8772 112.829 30.0204 112.829 31.4214ZM110.68 31.4887C110.68 30.6247 110.496 29.8837 110.124 29.2657C109.689 28.5179 109.068 28.1449 108.264 28.1449C107.431 28.1449 106.798 28.5189 106.364 29.2657C105.992 29.8847 105.808 30.6374 105.808 31.5278C105.808 32.3918 105.992 33.1328 106.364 33.7498C106.812 34.4976 107.438 34.8706 108.245 34.8706C109.036 34.8706 109.657 34.4898 110.105 33.7303C110.487 33.1006 110.68 32.3518 110.68 31.4887Z" fill="#0C0B3D"/>
<path d="M119.563 28.6448C119.358 28.6067 119.14 28.5872 118.91 28.5872C118.182 28.5872 117.618 28.8635 117.221 29.417C116.876 29.9052 116.703 30.5222 116.703 31.2671V36.1827H114.633L114.652 29.7646C114.652 28.6848 114.626 27.7017 114.574 26.8152H116.379L116.455 28.6077H116.512C116.731 27.9917 117.076 27.4957 117.548 27.1237C118.01 26.7889 118.508 26.6219 119.045 26.6219C119.237 26.6219 119.41 26.6356 119.563 26.66V28.6448Z" fill="#0C0B3D"/>
<path d="M128.829 31.0553C128.829 31.4283 128.805 31.7426 128.753 31.9994H122.538C122.562 32.9249 122.862 33.6327 123.439 34.1209C123.963 34.5573 124.64 34.7759 125.472 34.7759C126.393 34.7759 127.232 34.6285 127.987 34.3327L128.312 35.7776C127.429 36.1642 126.388 36.3566 125.186 36.3566C123.74 36.3566 122.605 35.9289 121.779 35.0747C120.955 34.2204 120.542 33.0733 120.542 31.6343C120.542 30.2216 120.925 29.0451 121.694 28.1069C122.499 27.1053 123.586 26.6044 124.954 26.6044C126.298 26.6044 127.316 27.1053 128.007 28.1069C128.554 28.9026 128.829 29.8867 128.829 31.0553ZM126.853 30.5154C126.867 29.8984 126.732 29.3654 126.451 28.9153C126.092 28.3364 125.541 28.0474 124.8 28.0474C124.123 28.0474 123.572 28.3295 123.151 28.8958C122.806 29.3458 122.601 29.8857 122.538 30.5145H126.853V30.5154Z" fill="#0C0B3D"/>
<path d="M53.4688 14.9844H54.5365C55.5678 14.9844 56.1719 15.4479 56.1719 16.2292V16.2396C56.1719 16.9635 55.5365 17.4375 54.5678 17.4375C53.5782 17.4375 52.948 17.0469 52.8646 16.3542L52.8594 16.3125H51.7188L51.724 16.375C51.8021 17.6146 52.9063 18.4583 54.5678 18.4583C56.1771 18.4583 57.3646 17.5312 57.3646 16.2917V16.2812C57.3646 15.2708 56.7449 14.5573 55.7396 14.4323V14.3906C56.573 14.1979 57.1355 13.5 57.1355 12.6667V12.6562C57.1355 11.4948 56.1042 10.6927 54.5938 10.6927C53.0209 10.6927 51.9949 11.4687 51.9167 12.7396L51.9115 12.8125H53.0313L53.0365 12.7396C53.1251 12.0937 53.6719 11.7135 54.5574 11.7135C55.4584 11.7135 55.9792 12.1146 55.9792 12.7812V12.7917C55.9792 13.5104 55.4011 14.0052 54.5053 14.0052H53.4688V14.9844Z" fill="#0C0B3D"/>
<path d="M61.1369 18.4323C61.8661 18.4323 62.4963 18.0573 62.814 17.4687H62.8401V18.3333H63.9651V14.5573C63.9651 13.4583 63.1161 12.75 61.7776 12.75C60.4286 12.75 59.6109 13.474 59.5328 14.4167L59.5276 14.474H60.5901L60.6005 14.4271C60.6942 13.9896 61.0953 13.6823 61.7463 13.6823C62.4442 13.6823 62.8401 14.0469 62.8401 14.651V15.0625L61.3453 15.151C60.0484 15.2292 59.3088 15.8125 59.3088 16.7656V16.776C59.3088 17.7604 60.0432 18.4323 61.1369 18.4323ZM60.4442 16.75V16.7396C60.4442 16.276 60.8192 15.9792 61.4963 15.9375L62.8401 15.8542V16.2812C62.8401 16.9948 62.2359 17.5312 61.4442 17.5312C60.8401 17.5312 60.4442 17.2292 60.4442 16.75Z" fill="#0C0B3D"/>
<path d="M69.9561 13.75V12.8542H66.3259V18.3333H67.4509V13.75H69.9561Z" fill="#0C0B3D"/>
<path d="M72.0721 20.1562H73.1971V17.4115H73.2232C73.5461 18.0469 74.1763 18.4427 74.9524 18.4427C76.3274 18.4427 77.2284 17.3437 77.2284 15.599V15.5937C77.2284 13.8437 76.3326 12.75 74.9367 12.75C74.1555 12.75 73.5513 13.1458 73.2232 13.7969H73.1971V12.8542H72.0721V20.1562ZM74.6451 17.474C73.7961 17.474 73.1919 16.7344 73.1919 15.599V15.5937C73.1919 14.4531 73.7909 13.7135 74.6451 13.7135C75.5305 13.7135 76.0826 14.4271 76.0826 15.5937V15.599C76.0826 16.7552 75.5305 17.474 74.6451 17.474Z" fill="#0C0B3D"/>
<path d="M79.8705 20.1615C80.9434 20.1615 81.5163 19.724 81.9226 18.5885L83.9642 12.8542H82.7767L81.3965 17.3125H81.3601L79.9799 12.8542H78.7611L80.7559 18.3385L80.6621 18.599C80.4746 19.1302 80.183 19.2708 79.6517 19.2708C79.5007 19.2708 79.3705 19.25 79.2819 19.2292V20.1094C79.4174 20.1354 79.6517 20.1615 79.8705 20.1615Z" fill="#0C0B3D"/>
<path d="M87.8303 18.4427C89.174 18.4427 90.0646 17.7604 90.0646 16.7396V16.7292C90.0646 16.0885 89.6688 15.651 88.9449 15.5052V15.4635C89.5334 15.3281 89.9136 14.8646 89.9136 14.276V14.2656C89.9136 13.3281 89.1428 12.75 87.8824 12.75C86.648 12.75 85.8407 13.3333 85.7105 14.3073L85.7053 14.349H86.7782L86.7834 14.3125C86.8667 13.8958 87.2782 13.6406 87.8667 13.6406C88.4605 13.6406 88.8146 13.9167 88.8146 14.3854V14.3958C88.8146 14.8854 88.4761 15.1354 87.8146 15.1354H87.0282V15.9531H87.8199C88.5803 15.9531 88.9449 16.2031 88.9449 16.7292V16.7396C88.9449 17.2396 88.5178 17.5469 87.8251 17.5469C87.2053 17.5469 86.799 17.3073 86.674 16.8646L86.6584 16.8125H85.5542L85.5594 16.8594C85.6688 17.8281 86.549 18.4427 87.8303 18.4427Z" fill="#0C0B3D"/>
<path d="M92.2276 18.3333H93.3369L95.8526 14.4844H95.8994V18.3333H97.0192V12.8542H95.9099L93.3942 16.6875H93.3422V12.8542H92.2276V18.3333Z" fill="#0C0B3D"/>
<path d="M103.568 12.8542H99.0103V13.75H100.724V18.3333H101.854V13.75H103.568V12.8542Z" fill="#0C0B3D"/>
<path d="M107.798 18.4427C109.126 18.4427 109.975 17.651 110.147 16.7812L110.163 16.724H109.09L109.074 16.7656C108.934 17.1771 108.491 17.5208 107.824 17.5208C106.928 17.5208 106.361 16.9167 106.34 15.8802H110.22V15.5C110.22 13.8542 109.277 12.75 107.741 12.75C106.204 12.75 105.215 13.8958 105.215 15.6094V15.6146C105.215 17.3437 106.189 18.4427 107.798 18.4427ZM107.746 13.6719C108.48 13.6719 109.017 14.1354 109.105 15.0833H106.355C106.46 14.1667 107.017 13.6719 107.746 13.6719Z" fill="#0C0B3D"/>
<path d="M115.702 18.3333H118.223C119.41 18.3333 120.15 17.7187 120.15 16.7604V16.75C120.15 16.0781 119.681 15.5885 118.973 15.4948V15.4531C119.499 15.3542 119.905 14.8385 119.905 14.2708V14.2604C119.905 13.3906 119.259 12.8542 118.192 12.8542H115.702V18.3333ZM116.817 15.1146V13.6875H117.957C118.499 13.6875 118.791 13.9323 118.791 14.3854V14.3958C118.791 14.8802 118.478 15.1146 117.843 15.1146H116.817ZM116.817 17.5V15.9323H117.884C118.624 15.9323 118.994 16.1771 118.994 16.7031V16.7135C118.994 17.2344 118.65 17.5 118.015 17.5H116.817Z" fill="#0C0B3D"/>
</g>
<defs>
<clipPath id="clip0">
<rect width="168.667" height="50" fill="white" transform="translate(0.666687)"/>
</clipPath>
</defs>
</svg>
