<svg width="169" height="50" viewBox="0 0 169 50" fill="none" xmlns="http://www.w3.org/2000/svg">
<g clip-path="url(#clip0)">
<path fill-rule="evenodd" clip-rule="evenodd" d="M0 43.3333V6.66667C0 2.98477 2.98477 0 6.66667 0H162C165.682 0 168.667 2.98477 168.667 6.66667V43.3333C168.667 47.0152 165.682 50 162 50H6.66667C2.98477 50 0 47.0152 0 43.3333ZM1 43.3333V6.66667C1 3.53705 3.53705 1 6.66667 1H162C165.13 1 167.667 3.53705 167.667 6.66667V43.3333C167.667 46.4629 165.13 49 162 49H6.66667C3.53705 49 1 46.4629 1 43.3333Z" fill="#0C0B3D"/>
<path d="M85.4616 27.1632C82.46 27.1632 79.9801 29.5072 79.9801 32.7212C79.9801 35.9089 82.434 38.2792 85.4619 38.2792C88.4894 38.2792 90.9431 35.9352 90.9431 32.7212C90.9431 29.5072 88.4894 27.1632 85.4616 27.1632ZM85.4616 36.0675C83.8168 36.0675 82.382 34.671 82.382 32.6964C82.382 30.6944 83.8179 29.3252 85.4616 29.3252C87.1053 29.3252 88.5412 30.6944 88.5412 32.6964C88.5412 34.671 87.1053 36.0675 85.4616 36.0675ZM73.5328 27.1632C70.505 27.1632 68.051 29.5072 68.051 32.7212C68.051 35.9089 70.505 38.2792 73.5328 38.2792C76.5604 38.2792 79.0143 35.9352 79.0143 32.7212C79.0143 29.5072 76.5604 27.1632 73.5325 27.1632H73.5328ZM73.5328 36.0675C71.8877 36.0675 70.4533 34.671 70.4533 32.6964C70.4533 30.6944 71.8892 29.3252 73.5328 29.3252C75.1777 29.3252 76.6124 30.6944 76.6124 32.6964C76.6124 34.671 75.2022 36.0675 73.5328 36.0675ZM59.3591 28.8756V31.2196H64.8923C64.7351 32.5366 64.2927 33.5112 63.6396 34.1703C62.8308 34.9865 61.5778 35.8827 59.3591 35.8827C55.9391 35.8827 53.3037 33.0907 53.3037 29.6396C53.3037 26.1886 55.9405 23.3438 59.3591 23.3438C61.2117 23.3438 62.5438 24.0816 63.5356 25.0302L65.1793 23.37C63.7954 22.0271 61.9428 21 59.3591 21C54.6861 21 50.7706 24.8716 50.7706 29.5871C50.7706 34.3029 54.6861 38.1745 59.3591 38.1745C61.8908 38.1745 63.7708 37.332 65.2844 35.7506C66.8244 34.1965 67.2942 32.0096 67.2942 30.245C67.2942 29.6921 67.2425 29.1914 67.1633 28.7697L59.3591 28.8756ZM117.359 30.693C116.915 29.4547 115.506 27.1632 112.686 27.1632C109.866 27.1632 107.543 29.4025 107.543 32.7212C107.543 35.829 109.866 38.2792 112.947 38.2792C115.453 38.2792 116.889 36.7252 117.489 35.829L115.636 34.5648C115.009 35.4872 114.174 36.0923 112.947 36.0923C111.72 36.0923 110.859 35.5394 110.31 34.4062L117.593 31.3246L117.359 30.693ZM109.945 32.564C109.894 30.4296 111.59 29.3238 112.79 29.3238C113.756 29.3238 114.539 29.798 114.826 30.5095L109.945 32.564ZM104.02 37.9109H106.422V21.6314H104.02V37.9109ZM100.105 28.4014H100.027C99.4796 27.7423 98.4618 27.1632 97.1557 27.1632C94.4148 27.1632 91.9351 29.6134 91.9351 32.7212C91.9351 35.829 94.4408 38.2533 97.1557 38.2533C98.4604 38.2533 99.4784 37.6738 100.027 36.9885H100.105V37.7788C100.105 39.9132 98.9823 41.045 97.1817 41.045C95.7198 41.045 94.8058 39.9654 94.4408 39.0692L92.3532 39.9654C92.9529 41.4407 94.546 43.2581 97.1817 43.2581C100 43.2581 102.376 41.5719 102.376 37.4892V27.5052H100.105V28.4014ZM97.3646 36.0675C95.7198 36.0675 94.337 34.671 94.337 32.7226C94.337 30.7743 95.7209 29.3512 97.3646 29.3512C98.9837 29.3512 100.288 30.7743 100.288 32.7226C100.287 34.6447 98.9823 36.0675 97.3646 36.0675ZM128.557 21.6317H122.814V37.9109H125.216V31.7463H128.557C131.22 31.7463 133.829 29.7965 133.829 26.689C133.829 23.5812 131.22 21.6314 128.557 21.6314V21.6317ZM128.634 29.4824H125.241V23.8967H128.634C130.409 23.8967 131.453 25.3983 131.453 26.6887C131.429 27.9532 130.411 29.4824 128.634 29.4824ZM143.41 27.1369C141.687 27.1369 139.886 27.901 139.155 29.6396L141.27 30.5358C141.74 29.6396 142.575 29.35 143.463 29.35C144.716 29.35 145.968 30.1138 145.994 31.4567V31.6153C145.55 31.352 144.638 30.9825 143.489 30.9825C141.192 30.9825 138.868 32.2733 138.868 34.6447C138.868 36.8313 140.748 38.227 142.836 38.227C144.454 38.227 145.341 37.4892 145.889 36.6205H145.967V37.8849H148.29V31.6413C148.264 28.7706 146.15 27.1366 143.41 27.1366V27.1369ZM143.123 36.0413C142.34 36.0413 141.243 35.6456 141.243 34.6721C141.243 33.4076 142.599 32.9335 143.774 32.9335C144.818 32.9335 145.314 33.1706 145.967 33.4864C145.784 34.9879 144.505 36.0413 143.123 36.0413ZM156.669 27.5067L153.928 34.5397H153.85L151.006 27.5064H148.422L152.703 37.358L150.275 42.8638H152.78L159.332 27.5064H156.669L156.669 27.5067ZM135.161 37.9109H137.563V21.6314H135.161V37.9109Z" fill="#0C0B3D"/>
<path d="M58.028 14.0013V16.4187H57.0293V15H52.4373V16.4187H51.4387V14.0013H52.1853C52.4342 13.6529 52.6178 13.152 52.736 12.4987C52.8542 11.8391 52.9133 11.1236 52.9133 10.352V8.31733H57.2907V14.0013H58.028ZM56.2453 14.0013V9.316H53.9493V10.5293C53.9493 11.2262 53.8933 11.8733 53.7813 12.4707C53.6755 13.068 53.5138 13.5782 53.296 14.0013H56.2453Z" fill="#0C0B3D"/>
<path d="M62.2657 15.1493C61.6186 15.1493 61.0306 14.9969 60.5017 14.692C59.9728 14.3809 59.5559 13.9578 59.251 13.4227C58.9524 12.8876 58.803 12.2996 58.803 11.6587C58.803 11.0178 58.9524 10.4329 59.251 9.904C59.5559 9.36889 59.9728 8.94578 60.5017 8.63467C61.0306 8.32355 61.6186 8.168 62.2657 8.168C62.9128 8.168 63.4977 8.32355 64.0204 8.63467C64.5492 8.94578 64.9661 9.36889 65.271 9.904C65.5759 10.4329 65.7284 11.0178 65.7284 11.6587C65.7284 12.2996 65.5759 12.8876 65.271 13.4227C64.9724 13.9578 64.5586 14.3809 64.0297 14.692C63.5008 14.9969 62.9128 15.1493 62.2657 15.1493ZM62.2657 14.1507C62.7075 14.1507 63.1119 14.0449 63.479 13.8333C63.8461 13.6218 64.1355 13.3293 64.347 12.956C64.5586 12.5764 64.6644 12.144 64.6644 11.6587C64.6644 11.1733 64.5586 10.744 64.347 10.3707C64.1355 9.99111 63.8461 9.69556 63.479 9.484C63.1119 9.27244 62.7075 9.16667 62.2657 9.16667C61.8239 9.16667 61.4195 9.27244 61.0524 9.484C60.6852 9.69556 60.3928 9.99111 60.175 10.3707C59.9635 10.744 59.8577 11.1733 59.8577 11.6587C59.8577 12.144 59.9635 12.5764 60.175 12.956C60.3928 13.3293 60.6852 13.6218 61.0524 13.8333C61.4195 14.0449 61.8239 14.1507 62.2657 14.1507Z" fill="#0C0B3D"/>
<path d="M69.9864 15.1493C69.3393 15.1493 68.7482 14.9969 68.2131 14.692C67.678 14.3871 67.258 13.9671 66.9531 13.432C66.6482 12.8969 66.4957 12.3058 66.4957 11.6587C66.4957 11.0116 66.6482 10.4204 66.9531 9.88533C67.258 9.35022 67.678 8.93022 68.2131 8.62533C68.7482 8.32044 69.3393 8.168 69.9864 8.168C70.4904 8.168 70.9477 8.26133 71.3584 8.448C71.7753 8.63467 72.1424 8.90533 72.4597 9.26L71.7131 9.97867C71.4828 9.70489 71.2277 9.50267 70.9477 9.372C70.6677 9.23511 70.3473 9.16667 69.9864 9.16667C69.5384 9.16667 69.1277 9.26933 68.7544 9.47467C68.3873 9.68 68.0948 9.97245 67.8771 10.352C67.6593 10.7253 67.5504 11.1609 67.5504 11.6587C67.5504 12.1564 67.6593 12.5951 67.8771 12.9747C68.0948 13.348 68.3873 13.6373 68.7544 13.8427C69.1277 14.048 69.5384 14.1507 69.9864 14.1507C70.7331 14.1507 71.3677 13.8396 71.8904 13.2173L72.6464 13.9453C72.3228 14.3249 71.934 14.6204 71.4797 14.832C71.0255 15.0436 70.5277 15.1493 69.9864 15.1493Z" fill="#0C0B3D"/>
<path d="M75.1668 9.316H73.3002V8.31733H78.0788V9.316H76.2122V15H75.1668V9.316Z" fill="#0C0B3D"/>
<path d="M79.8095 15.1493C79.5793 15.1493 79.3833 15.1089 79.2215 15.028V14.0107C79.4269 14.1227 79.6135 14.1787 79.7815 14.1787C79.9495 14.1787 80.0833 14.1476 80.1828 14.0853C80.2824 14.0169 80.3726 13.8924 80.4535 13.712L80.6868 13.2267L78.4655 8.31733H79.6322L81.1909 12.0227H81.2469L82.8149 8.31733H83.9815L81.4242 13.936C81.2375 14.3529 81.0104 14.6609 80.7428 14.86C80.4815 15.0529 80.1704 15.1493 79.8095 15.1493Z" fill="#0C0B3D"/>
<path d="M84.8877 8.31733H89.8624V15H88.8171V9.316H85.9331V15H84.8877V8.31733Z" fill="#0C0B3D"/>
<path d="M91.3864 8.31733H92.4318V11.0893H95.5304V8.31733H96.5664V15H95.5304V12.0787H92.4318V15H91.3864V8.31733Z" fill="#0C0B3D"/>
<path d="M101.13 15.1493C100.483 15.1493 99.8952 14.9969 99.3663 14.692C98.8374 14.3809 98.4205 13.9578 98.1156 13.4227C97.8169 12.8876 97.6676 12.2996 97.6676 11.6587C97.6676 11.0178 97.8169 10.4329 98.1156 9.904C98.4205 9.36889 98.8374 8.94578 99.3663 8.63467C99.8952 8.32355 100.483 8.168 101.13 8.168C101.777 8.168 102.362 8.32355 102.885 8.63467C103.414 8.94578 103.831 9.36889 104.136 9.904C104.441 10.4329 104.593 11.0178 104.593 11.6587C104.593 12.2996 104.441 12.8876 104.136 13.4227C103.837 13.9578 103.423 14.3809 102.894 14.692C102.365 14.9969 101.777 15.1493 101.13 15.1493ZM101.13 14.1507C101.572 14.1507 101.977 14.0449 102.344 13.8333C102.711 13.6218 103 13.3293 103.212 12.956C103.423 12.5764 103.529 12.144 103.529 11.6587C103.529 11.1733 103.423 10.744 103.212 10.3707C103 9.99111 102.711 9.69556 102.344 9.484C101.977 9.27244 101.572 9.16667 101.13 9.16667C100.689 9.16667 100.284 9.27244 99.9169 9.484C99.5498 9.69556 99.2574 9.99111 99.0396 10.3707C98.8281 10.744 98.7223 11.1733 98.7223 11.6587C98.7223 12.144 98.8281 12.5764 99.0396 12.956C99.2574 13.3293 99.5498 13.6218 99.9169 13.8333C100.284 14.0449 100.689 14.1507 101.13 14.1507Z" fill="#0C0B3D"/>
<path d="M107.975 8.31733H110.486C110.84 8.31733 111.167 8.39511 111.466 8.55067C111.771 8.70622 112.013 8.92089 112.194 9.19467C112.374 9.46844 112.464 9.77022 112.464 10.1C112.464 10.4298 112.38 10.716 112.212 10.9587C112.051 11.2013 111.836 11.3849 111.568 11.5093V11.5653C111.904 11.6836 112.175 11.8796 112.38 12.1533C112.592 12.4271 112.698 12.7476 112.698 13.1147C112.698 13.4818 112.601 13.8084 112.408 14.0947C112.222 14.3809 111.967 14.6049 111.643 14.7667C111.326 14.9222 110.977 15 110.598 15H107.975V8.31733ZM110.439 11.1173C110.738 11.1173 110.977 11.024 111.158 10.8373C111.344 10.6507 111.438 10.436 111.438 10.1933C111.438 9.95067 111.347 9.73911 111.167 9.55867C110.993 9.372 110.763 9.27867 110.476 9.27867H109.02V11.1173H110.439ZM110.598 14.0293C110.915 14.0293 111.167 13.9298 111.354 13.7307C111.547 13.5316 111.643 13.3013 111.643 13.04C111.643 12.7724 111.543 12.5422 111.344 12.3493C111.151 12.1502 110.89 12.0507 110.56 12.0507H109.02V14.0293H110.598Z" fill="#0C0B3D"/>
<path d="M35.564 30.3608C39.5576 28.1477 42.5854 26.4615 42.8464 26.3306C43.6809 25.8823 44.5432 24.6966 42.8464 23.7756C42.2985 23.4861 39.3487 21.8521 35.564 19.7454L30.3177 25.0923L35.5637 30.3608H35.564Z" fill="#FFD900"/>
<path d="M30.3177 25.0923L13.6123 42.0834C14.0041 42.1359 14.4468 42.0309 14.969 41.7414C16.0648 41.1362 27.6806 34.7342 35.5643 30.3619L30.3177 25.0923Z" fill="#F43249"/>
<path d="M30.3177 25.0923L35.5637 19.7714C35.5637 19.7714 16.144 9.07613 14.9687 8.44505C14.5266 8.17969 14.0304 8.10124 13.5866 8.17969L30.3177 25.092V25.0923Z" fill="#00EE76"/>
<path d="M30.3177 25.0924L13.5863 8.1801C12.9072 8.33845 12.3333 8.94386 12.3333 10.1815V40.0813C12.3333 41.2148 12.7775 42.031 13.612 42.1095L30.3175 25.0922L30.3177 25.0924Z" fill="#00D3FF"/>
</g>
<defs>
<clipPath id="clip0">
<rect width="168.667" height="50" fill="white"/>
</clipPath>
</defs>
</svg>
