<svg width="18" height="17" viewBox="0 0 18 17" fill="none" xmlns="http://www.w3.org/2000/svg">
<path d="M0.296875 5.58203H17.2978V15.1415C17.2978 16.0523 16.6924 16.7612 15.7935 16.8988C15.6603 16.919 15.5258 16.9292 15.3912 16.9295C10.8723 16.9295 6.35306 16.9295 1.83355 16.9295C0.921954 16.9295 0.343299 16.3687 0.301095 15.4455C0.297813 15.3751 0.298282 15.3037 0.298282 15.2332C0.298282 12.083 0.298282 8.93261 0.298282 5.78207L0.296875 5.58203ZM12.8318 7.55029C12.6151 7.55029 12.3985 7.54745 12.1823 7.55029C11.9169 7.55454 11.7462 7.7054 11.7396 7.97165C11.7284 8.41902 11.7284 8.8664 11.7396 9.31377C11.7457 9.55874 11.8953 9.71858 12.1359 9.72568C12.5976 9.73955 13.0595 9.73955 13.5215 9.72568C13.7762 9.71811 13.9023 9.56962 13.9051 9.31377C13.9104 8.87239 13.9104 8.431 13.9051 7.98962C13.9023 7.71722 13.7363 7.55596 13.4625 7.55123C13.2538 7.54745 13.0432 7.55029 12.8327 7.55029H12.8318ZM8.59688 14.529H9.24634C9.51316 14.5201 9.66087 14.3995 9.66838 14.1365C9.68213 13.6778 9.68213 13.2188 9.66838 12.7594C9.66181 12.5083 9.50191 12.3536 9.2515 12.3484C8.80696 12.3384 8.36241 12.3384 7.91787 12.3484C7.6609 12.3546 7.50756 12.5234 7.50522 12.7807C7.50053 13.2164 7.50053 13.6519 7.50522 14.0873C7.50803 14.3616 7.67122 14.5224 7.94601 14.5276C8.16218 14.5319 8.37883 14.5286 8.59688 14.529ZM13.9103 13.4517C13.9103 13.2337 13.9131 13.0162 13.9103 12.7982C13.9061 12.5277 13.7588 12.3551 13.4958 12.3484C13.0512 12.3371 12.6048 12.338 12.1621 12.3484C11.9117 12.3541 11.7504 12.5088 11.7438 12.7585C11.7317 13.2115 11.7317 13.6655 11.7438 14.1181C11.7513 14.3749 11.923 14.5253 12.1799 14.5281C12.6189 14.5323 13.0578 14.5328 13.4962 14.5281C13.7626 14.5243 13.9033 14.3772 13.9093 14.1067C13.9122 13.8873 13.9084 13.6698 13.9084 13.4517H13.9103ZM8.6025 7.55029C8.38023 7.55029 8.15749 7.54698 7.93569 7.55029C7.67215 7.55549 7.5085 7.71628 7.50568 7.98205C7.50053 8.41761 7.50146 8.85316 7.50568 9.28918C7.50803 9.54881 7.6534 9.71953 7.91178 9.7271C8.36757 9.74034 8.82431 9.73939 9.27963 9.7271C9.53192 9.72 9.6604 9.5909 9.66744 9.33836C9.68057 8.87964 9.68057 8.4206 9.66744 7.96125C9.6604 7.70162 9.49159 7.55596 9.23321 7.55123C9.0236 7.54698 8.81305 7.55029 8.6025 7.55029ZM3.31958 13.4442C3.31958 13.6504 3.31958 13.8566 3.31958 14.0627C3.32286 14.3607 3.48042 14.5253 3.77256 14.5281C4.18209 14.5312 4.59162 14.5312 5.00115 14.5281C5.2886 14.5248 5.48039 14.3479 5.48789 14.058C5.49884 13.628 5.49884 13.1979 5.48789 12.7679C5.48086 12.5088 5.31955 12.3527 5.0607 12.3475C4.62304 12.3387 4.18412 12.3387 3.74396 12.3475C3.47761 12.3536 3.32661 12.522 3.32192 12.7901C3.31629 13.0082 3.31958 13.2262 3.31958 13.4442ZM4.40702 7.54981H3.75709C3.48511 7.55785 3.32333 7.71817 3.32051 7.99482C3.31676 8.42486 3.31676 8.85489 3.32051 9.28492C3.32051 9.54644 3.46588 9.71858 3.72285 9.7271C4.1613 9.74128 4.60068 9.74034 5.03913 9.7271C5.30314 9.71906 5.47945 9.54077 5.48696 9.27452C5.49915 8.83314 5.49805 8.39175 5.48367 7.95037C5.47523 7.70115 5.30454 7.55691 5.05648 7.55171C4.83984 7.54698 4.62319 7.55029 4.40702 7.54981Z" fill="#00ADA6"/>
<path d="M17.2436 4.44547H0.325697C0.325697 3.69733 0.294748 2.95911 0.335544 2.22563C0.369307 1.61084 0.866838 0.898165 1.80422 0.93316C2.22626 0.948766 2.64829 0.93316 3.07032 0.93316H3.26212V1.31858C3.26212 1.69029 3.26212 2.062 3.26212 2.43371C3.26212 2.82149 3.47079 3.0641 3.79763 3.06173C4.12447 3.05937 4.32189 2.82528 4.3233 2.44364C4.3233 2.01329 4.3233 1.58247 4.3233 1.15165V0.945929H12.7851C12.7884 1.00977 12.7945 1.0722 12.7945 1.13509C12.7945 1.59524 12.7912 2.05538 12.7973 2.51552C12.8006 2.7813 12.9539 2.98039 13.1837 3.04565C13.3942 3.10571 13.6427 3.02957 13.7539 2.83474C13.8169 2.71677 13.8509 2.58521 13.8528 2.4512C13.865 2.01471 13.8575 1.57821 13.8575 1.14124V0.933633C14.3818 0.933633 14.8849 0.918973 15.3867 0.940254C15.6377 0.94664 15.8859 0.99457 16.1215 1.08213C16.6964 1.31102 17.1062 1.70826 17.231 2.34906C17.2378 2.37775 17.2419 2.40705 17.2432 2.43654C17.2441 3.10335 17.2436 3.76873 17.2436 4.44547Z" fill="#00ADA6"/>
</svg>
