<svg width="18" height="18" viewBox="0 0 18 18" fill="none" xmlns="http://www.w3.org/2000/svg">
<path d="M11.4604 12.055L9.73543 16.7359C9.68438 16.8734 9.59244 16.9921 9.47199 17.0758C9.35153 17.1596 9.20833 17.2045 9.0616 17.2045C8.91488 17.2045 8.77167 17.1596 8.65122 17.0758C8.53076 16.9921 8.43883 16.8734 8.38778 16.7359L6.66278 12.055C6.62637 11.9562 6.56896 11.8665 6.49451 11.792C6.42005 11.7176 6.33033 11.6602 6.23153 11.6238L1.55067 9.89876C1.41311 9.8477 1.29448 9.75577 1.21071 9.63532C1.12693 9.51486 1.08203 9.37166 1.08203 9.22493C1.08203 9.07821 1.12693 8.935 1.21071 8.81455C1.29448 8.69409 1.41311 8.60216 1.55067 8.55111L6.23153 6.82611C6.33033 6.7897 6.42005 6.73229 6.49451 6.65784C6.56896 6.58338 6.62637 6.49366 6.66278 6.39486L8.38778 1.714C8.43883 1.57644 8.53076 1.45781 8.65122 1.37404C8.77167 1.29026 8.91488 1.24536 9.0616 1.24536C9.20833 1.24536 9.35153 1.29026 9.47199 1.37404C9.59244 1.45781 9.68438 1.57644 9.73543 1.714L11.4604 6.39486C11.4968 6.49366 11.5542 6.58338 11.6287 6.65784C11.7032 6.73229 11.7929 6.7897 11.8917 6.82611L16.5725 8.55111C16.7101 8.60216 16.8287 8.69409 16.9125 8.81455C16.9963 8.935 17.0412 9.07821 17.0412 9.22493C17.0412 9.37166 16.9963 9.51486 16.9125 9.63532C16.8287 9.75577 16.7101 9.8477 16.5725 9.89876L11.8917 11.6238C11.7929 11.6602 11.7032 11.7176 11.6287 11.792C11.5542 11.8665 11.4968 11.9562 11.4604 12.055V12.055Z" stroke="#00ADA6" stroke-width="1.5" stroke-linecap="round" stroke-linejoin="round"/>
</svg>
