<svg width="16" height="17" viewBox="0 0 16 17" fill="none" xmlns="http://www.w3.org/2000/svg">
<g clip-path="url(#clip0_977_3908)">
<path d="M10.2067 6.67969C9.99977 6.67969 9.83203 6.84743 9.83203 7.05439V14.1363C9.83203 14.3432 9.99977 14.511 10.2067 14.511C10.4137 14.511 10.5814 14.3432 10.5814 14.1363V7.05439C10.5814 6.84743 10.4137 6.67969 10.2067 6.67969Z" fill="#A3A3A3"/>
<path d="M5.78584 6.67969C5.57887 6.67969 5.41113 6.84743 5.41113 7.05439V14.1363C5.41113 14.3432 5.57887 14.511 5.78584 14.511C5.99281 14.511 6.16055 14.3432 6.16055 14.1363V7.05439C6.16055 6.84743 5.99281 6.67969 5.78584 6.67969Z" fill="#A3A3A3"/>
<path d="M2.56325 5.64617V14.8781C2.56325 15.4238 2.76334 15.9362 3.11287 16.3039C3.46079 16.6726 3.94498 16.8819 4.45171 16.8828H11.5413C12.0481 16.8819 12.5323 16.6726 12.8801 16.3039C13.2296 15.9362 13.4297 15.4238 13.4297 14.8781V5.64617C14.1245 5.46174 14.5748 4.79049 14.4818 4.07752C14.3887 3.3647 13.7815 2.83148 13.0625 2.83133H11.144V2.36295C11.1462 1.96907 10.9905 1.59085 10.7116 1.3126C10.4328 1.0345 10.054 0.879642 9.66012 0.882862H6.33285C5.93897 0.879642 5.56017 1.0345 5.28133 1.3126C5.0025 1.59085 4.84676 1.96907 4.84896 2.36295V2.83133H2.93049C2.21152 2.83148 1.60424 3.3647 1.51115 4.07752C1.4182 4.79049 1.86843 5.46174 2.56325 5.64617ZM11.5413 16.1334H4.45171C3.81105 16.1334 3.31266 15.5831 3.31266 14.8781V5.6791H12.6803V14.8781C12.6803 15.5831 12.1819 16.1334 11.5413 16.1334ZM5.59837 2.36295C5.59588 2.16784 5.67258 1.98005 5.81104 1.84231C5.94936 1.70458 6.13759 1.62891 6.33285 1.63227H9.66012C9.85538 1.62891 10.0436 1.70458 10.1819 1.84231C10.3204 1.9799 10.3971 2.16784 10.3946 2.36295V2.83133H5.59837V2.36295ZM2.93049 3.58075H13.0625C13.435 3.58075 13.737 3.88271 13.737 4.25522C13.737 4.62773 13.435 4.92969 13.0625 4.92969H2.93049C2.55798 4.92969 2.25602 4.62773 2.25602 4.25522C2.25602 3.88271 2.55798 3.58075 2.93049 3.58075Z" fill="#A3A3A3"/>
<path d="M7.9958 6.67969C7.78883 6.67969 7.62109 6.84743 7.62109 7.05439V14.1363C7.62109 14.3432 7.78883 14.511 7.9958 14.511C8.20277 14.511 8.37051 14.3432 8.37051 14.1363V7.05439C8.37051 6.84743 8.20277 6.67969 7.9958 6.67969Z" fill="#A3A3A3"/>
</g>
<defs>
<clipPath id="clip0_977_3908">
<rect width="16" height="16" fill="white" transform="translate(0 0.882812)"/>
</clipPath>
</defs>
</svg>
