<svg width="26" height="29" viewBox="0 0 26 29" fill="none" xmlns="http://www.w3.org/2000/svg">
<g clip-path="url(#clip0_3236_4243)">
<path d="M10.9104 27.9492C9.92704 27.4481 9.26988 26.6692 8.89355 25.6553H17.1113C17.0064 25.945 16.8657 26.2217 16.692 26.4789L16.6899 26.4821C15.9518 27.5926 14.939 28.2514 13.6097 28.4543L13.5856 28.458L13.5619 28.464C13.5223 28.474 13.4833 28.4861 13.4449 28.5002H12.5307C12.361 28.4457 12.1814 28.3936 12.011 28.3441C11.9004 28.3121 11.7936 28.2811 11.696 28.2513C11.4055 28.1627 11.1457 28.071 10.9133 27.9507L10.9104 27.9492Z" stroke="#00ADA6"/>
<path d="M14.4542 3.20922C14.3336 3.19049 14.1276 3.14385 13.9716 2.96715C13.8125 2.78676 13.7947 2.57315 13.7947 2.44546V2.4379L13.7949 2.43034C13.8069 2.03448 13.8092 1.64205 13.795 1.25224C13.7878 1.05173 13.7024 0.860881 13.5554 0.720209C13.4082 0.579406 13.2107 0.5 13.0044 0.5C12.7981 0.5 12.6007 0.579406 12.4535 0.720209C12.3064 0.860877 12.221 1.05192 12.2138 1.25244C12.2003 1.62545 12.1973 1.99573 12.2137 2.36023C12.2201 2.50941 12.2102 2.75306 12.0312 2.95516C11.8627 3.14533 11.6329 3.1947 11.4988 3.21658C7.52987 3.87567 4.49049 7.36535 4.41377 11.3368C4.39611 12.2391 4.39899 13.1391 4.4019 14.0455C4.40299 14.3874 4.40409 14.7302 4.40409 15.0744V15.0757C4.3998 16.7493 4.00402 18.333 3.14092 19.7962C2.62679 20.6731 1.96859 21.4585 1.19362 22.12C0.61091 22.6171 0.394085 23.1928 0.547935 23.9018L0.548447 23.9041C0.726494 24.7441 1.40905 25.2841 2.42157 25.2841H2.44223H2.46289H2.48355H2.50421H2.52487H2.54553H2.56619H2.58685H2.60751H2.62817H2.64883H2.66949H2.69015H2.71081H2.73147H2.75213H2.77279H2.79345H2.81411H2.83477H2.85543H2.87609H2.89675H2.91741H2.93807H2.95873H2.97939H3.00005H3.02071H3.04137H3.06203H3.08269H3.10335H3.12401H3.14467H3.16533H3.18599H3.20665H3.22731H3.24797H3.26863H3.2893H3.30996H3.33062H3.35128H3.37194H3.3926H3.41326H3.43392H3.45458H3.47524H3.4959H3.51656H3.53722H3.55788H3.57854H3.5992H3.61986H3.64052H3.66118H3.68184H3.7025H3.72316H3.74382H3.76448H3.78514H3.8058H3.82646H3.84712H3.86778H3.88844H3.9091H3.92976H3.95042H3.97108H3.99174H4.0124H4.03306H4.05372H4.07438H4.09504H4.1157H4.13636H4.15702H4.17768H4.19834H4.219H4.23966H4.26032H4.28098H4.30164H4.3223H4.34296H4.36362H4.38429H4.40494H4.42561H4.44627H4.46693H4.48759H4.50825H4.52891H4.54957H4.57023H4.59089H4.61155H4.63221H4.65287H4.67353H4.69419H4.71485H4.73551H4.75617H4.77683H4.79749H4.81815H4.83881H4.85947H4.88013H4.90079H4.92145H4.94211H4.96277H4.98343H5.00409H5.02475H5.04541H5.06607H5.08673H5.10739H5.12805H5.14871H5.16937H5.19003H5.21069H5.23135H5.25201H5.27267H5.29333H5.31399H5.33465H5.35531H5.37597H5.39663H5.41729H5.43795H5.45861H5.47927H5.49993H5.5206H5.54126H5.56192H5.58258H5.60324H5.6239H5.64456H5.66522H5.68588H5.70654H5.7272H5.74786H5.76852H5.78918H5.80984H5.8305H5.85116H5.87182H5.89248H5.91314H5.9338H5.95446H5.97512H5.99578H6.01644H6.0371H6.05776H6.07842H6.09908H6.11974H6.1404H6.16106H6.18172H6.20238H6.22304H6.2437H6.26436H6.28502H6.30568H6.32634H6.347H6.36766H6.38832H6.40898H6.42964H6.4503H6.47096H6.49162H6.51228H6.53294H6.5536H6.57426H6.59492H6.61558H6.63624H6.65691H6.67757H6.69823H6.71889H6.73955H6.76021H6.78087H6.80153H6.82219H6.84285H6.86351H6.88417H6.90483H6.92549H6.94615H6.96681H6.98747H7.00813H7.02879H7.04945H7.07011H7.09077H7.11143H7.13209H7.15275H7.17341H7.19407H7.21473H7.23539H7.25605H7.27671H7.29737H7.31803H7.33869H7.35935H7.38001H7.40067H7.42133H7.44199H7.46265H7.48331H7.50397H7.52463H7.54529H7.56595H7.58661H7.60727H7.62793H7.64859H7.66925H7.68991H7.71057H7.73123H7.7519H7.77255H7.79322H7.81388H7.83454H7.8552H7.87586H7.89652H7.91718H7.93784H7.9585H7.97916H7.99982H8.02048H8.04114H8.0618H8.08246H8.10312H8.12378H8.14444H8.1651H8.18576H8.20642H8.22708H8.24774H8.2684H8.28906H8.30972H8.33038H8.35104H8.3717H8.39236H8.41302H8.43368H8.45434H8.475H8.49566H8.51632H8.53698H8.55764H8.5783H8.59896H8.61962H8.64028H8.66094H8.6816H8.70226H8.72292H8.74358H8.76424H8.7849H8.80556H8.82622H8.84688H8.86754H8.8882H8.90887H8.92953H8.95019H8.97085H8.99151H9.01217H9.03283H9.05349H9.07415H9.09481H9.11547H9.13613H9.15679H9.17745H9.19811H9.21877H9.23943H9.26009H9.28075H9.30141H9.32207H9.34273H9.36339H9.38405H9.40471H9.42537H9.44603H9.46669H9.48735H9.50801H9.52867H9.54933H9.56999H9.59065H9.61131H9.63197H9.65263H9.67329H9.69395H9.71461H9.73527H9.75593H9.77659H9.79725H9.81791H9.83857H9.85923H9.87989H9.90055H9.92121H9.94187H9.96253H9.98319H10.0038H10.0245H10.0451H10.0658H10.0865H10.1071H10.1278H10.1484H10.1691H10.1898H10.2104H10.2311H10.2517H10.2724H10.2931H10.3137H10.3344H10.355H10.3757H10.3964H10.417H10.4377H10.4583H10.479H10.4997H10.5203H10.541H10.5616H10.5823H10.603H10.6236H10.6443H10.6649H10.6856H10.7063H10.7269H10.7476H10.7682H10.7889H10.8096H10.8302H10.8509H10.8715H10.8922H10.9129H10.9335H10.9542H10.9748H10.9955H11.0162H11.0368H11.0575H11.0781H11.0988H11.1195H11.1401H11.1608H11.1814H11.2021H11.2228H11.2434H11.2641H11.2847H11.3054H11.3261H11.3467H11.3674H11.388H11.4087H11.4294H11.45H11.4707H11.4913H11.512H11.5327H11.5533H11.574H11.5946H11.6153H11.636H11.6566H11.6773H11.6979H11.7186H11.7393H11.7599H11.7806H11.8013H11.8219H11.8426H11.8632H11.8839H11.9046H11.9252H11.9459H11.9665H11.9872H12.0079H12.0285H12.0492H12.0698H12.0905H12.1112H12.1318H12.1525H12.1731H12.1938H12.2145H12.2351H12.2558H12.2764H12.2971H12.3178H12.3384H12.3591H12.3797H12.4004H12.4211H12.4417H12.4624H12.483H12.5037H12.5244H12.545H12.5657H12.5863H12.607H12.6277H12.6483H12.669H12.6896H12.7103H12.731H12.7516H12.7723H12.7929H12.8136H12.8343H12.8549H12.8756H12.8962H12.9169H12.9376H12.9582H12.9789H12.9994L19.5249 25.2817C19.9844 25.2817 20.443 25.2827 20.9008 25.2837C21.8139 25.2857 22.7245 25.2876 23.637 25.2817C24.8152 25.2739 25.5822 24.4348 25.4928 23.3312C25.4512 22.8242 25.1697 22.4322 24.6961 22.0093C22.8761 20.3846 21.8102 18.3383 21.6555 15.8924C21.5988 15.0018 21.6014 14.0901 21.6041 13.1984C21.6055 12.722 21.6069 12.2513 21.5992 11.7926L21.599 11.7812C21.6019 11.3024 21.5726 10.8239 21.5112 10.349M21.5112 10.349C20.9357 6.672 18.1572 3.86338 14.444 3.20752M21.5112 10.349C21.5116 10.3511 21.5119 10.3532 21.5122 10.3553M21.5112 10.349C21.511 10.3469 21.5107 10.3448 21.5104 10.3427" stroke="#00ADA6"/>
</g>
<defs>
<clipPath id="clip0_3236_4243">
<rect width="26" height="29" fill="white"/>
</clipPath>
</defs>
</svg>
